<svg id="svg" version="1.1" width="400" height="400" viewBox="0 0 400 400" xmlns="http://www.w3.org/2000/svg" xmlns:xlink="http://www.w3.org/1999/xlink" ><g id="svgg"><path id="path0" d="M59.000 16.851 C 40.848 19.153,26.483 31.045,21.065 48.257 C 18.637 55.973,18.768 46.837,18.897 199.600 L 19.016 339.000 19.859 342.600 C 24.195 361.107,36.781 373.624,55.200 377.749 L 59.000 378.600 200.000 378.600 L 341.000 378.600 344.800 377.749 C 363.305 373.605,376.005 360.905,380.149 342.400 L 381.000 338.600 381.000 197.600 L 381.000 56.600 380.149 52.800 C 376.024 34.381,363.504 21.792,345.000 17.460 L 341.400 16.617 201.600 16.556 C 122.158 16.522,60.591 16.649,59.000 16.851 M331.200 46.330 C 340.429 49.633,347.436 57.247,349.380 66.085 C 349.962 68.732,350.011 81.005,349.911 199.600 L 349.800 330.200 348.918 332.510 C 345.322 341.929,338.251 348.536,329.579 350.580 C 325.660 351.504,75.140 351.504,71.221 350.580 C 62.788 348.593,54.833 341.294,51.925 332.876 L 51.000 330.200 51.000 197.600 L 51.000 65.000 51.935 62.294 C 54.706 54.270,63.535 47.152,72.611 45.624 C 73.705 45.440,131.750 45.315,201.600 45.345 L 328.600 45.400 331.200 46.330 M122.000 110.947 C 115.323 112.156,110.342 116.919,108.769 123.600 C 108.388 125.217,108.191 132.426,108.026 150.800 L 107.800 175.800 87.200 176.000 C 60.811 176.256,61.634 175.889,61.610 187.427 C 61.584 199.114,60.930 198.874,92.438 198.716 L 115.400 198.600 117.600 197.542 C 120.718 196.041,129.081 188.550,130.600 185.897 L 131.800 183.800 132.000 158.800 L 132.200 133.800 148.000 133.800 L 163.800 133.800 164.000 158.800 C 164.257 190.965,163.384 189.160,178.489 188.725 C 187.489 188.466,184.411 191.475,208.925 158.964 L 227.953 133.728 245.306 133.449 C 261.750 133.185,264.000 133.252,264.000 134.002 C 264.000 134.177,253.275 147.432,240.166 163.460 C 213.587 195.956,214.637 194.494,214.633 199.000 C 214.629 203.592,213.539 202.111,241.725 235.806 C 255.846 252.688,267.457 266.647,267.526 266.827 C 267.987 268.028,232.320 267.683,231.143 266.475 C 230.781 266.104,221.534 254.190,210.594 240.000 C 184.732 206.454,187.980 209.530,178.140 209.274 C 163.423 208.891,164.257 207.019,164.000 241.000 L 163.800 267.400 148.000 267.400 L 132.200 267.400 132.000 241.000 C 131.746 207.469,132.399 209.200,120.000 209.200 C 107.354 209.200,108.000 207.250,108.000 245.453 C 108.000 280.776,107.964 280.518,113.651 285.783 C 118.327 290.112,120.303 290.377,148.000 290.382 C 175.465 290.388,177.780 290.057,182.737 285.420 C 187.172 281.272,187.993 277.727,187.997 262.700 C 187.999 256.153,188.149 252.000,188.383 252.000 C 188.594 252.000,193.949 258.790,200.283 267.088 C 215.215 286.649,215.825 287.290,221.200 289.050 C 223.826 289.909,279.920 290.413,286.287 289.634 C 295.057 288.562,299.764 282.948,299.734 273.600 C 299.711 266.161,301.921 269.310,270.000 231.249 C 255.590 214.067,243.744 199.662,243.676 199.237 C 243.593 198.714,251.274 188.812,267.543 168.475 C 297.244 131.345,295.078 134.684,294.718 126.594 C 294.368 118.730,290.486 113.495,283.400 111.333 C 279.700 110.203,222.687 110.206,219.000 111.335 C 212.853 113.219,212.560 113.520,199.000 131.888 C 193.280 139.636,188.465 145.981,188.300 145.988 C 188.135 145.994,187.994 142.715,187.987 138.700 C 187.950 119.157,184.396 112.583,172.923 110.838 C 168.863 110.220,125.503 110.313,122.000 110.947 " stroke="none" fill="#000000" fill-rule="evenodd"></path><path id="path1" d="M59.000 16.851 C 40.848 19.153,26.483 31.045,21.065 48.257 C 18.637 55.973,18.768 46.837,18.897 199.600 L 19.016 339.000 19.859 342.600 C 24.195 361.107,36.781 373.624,55.200 377.749 L 59.000 378.600 200.000 378.600 L 341.000 378.600 344.800 377.749 C 363.305 373.605,376.005 360.905,380.149 342.400 L 381.000 338.600 381.000 197.600 L 381.000 56.600 380.149 52.800 C 376.024 34.381,363.504 21.792,345.000 17.460 L 341.400 16.617 201.600 16.556 C 122.158 16.522,60.591 16.649,59.000 16.851 M331.200 46.330 C 340.429 49.633,347.436 57.247,349.380 66.085 C 349.962 68.732,350.011 81.005,349.911 199.600 L 349.800 330.200 348.918 332.510 C 345.322 341.929,338.251 348.536,329.579 350.580 C 325.660 351.504,75.140 351.504,71.221 350.580 C 62.788 348.593,54.833 341.294,51.925 332.876 L 51.000 330.200 51.000 197.600 L 51.000 65.000 51.935 62.294 C 54.706 54.270,63.535 47.152,72.611 45.624 C 73.705 45.440,131.750 45.315,201.600 45.345 L 328.600 45.400 331.200 46.330 M122.000 110.947 C 115.323 112.156,110.342 116.919,108.769 123.600 C 108.388 125.217,108.191 132.426,108.026 150.800 L 107.800 175.800 87.200 176.000 C 60.811 176.256,61.634 175.889,61.610 187.427 C 61.584 199.114,60.930 198.874,92.438 198.716 L 115.400 198.600 117.600 197.542 C 120.718 196.041,129.081 188.550,130.600 185.897 L 131.800 183.800 132.000 158.800 L 132.200 133.800 148.000 133.800 L 163.800 133.800 164.000 158.800 C 164.257 190.965,163.384 189.160,178.489 188.725 C 187.489 188.466,184.411 191.475,208.925 158.964 L 227.953 133.728 245.306 133.449 C 261.750 133.185,264.000 133.252,264.000 134.002 C 264.000 134.177,253.275 147.432,240.166 163.460 C 213.587 195.956,214.637 194.494,214.633 199.000 C 214.629 203.592,213.539 202.111,241.725 235.806 C 255.846 252.688,267.457 266.647,267.526 266.827 C 267.987 268.028,232.320 267.683,231.143 266.475 C 230.781 266.104,221.534 254.190,210.594 240.000 C 184.732 206.454,187.980 209.530,178.140 209.274 C 163.423 208.891,164.257 207.019,164.000 241.000 L 163.800 267.400 148.000 267.400 L 132.200 267.400 132.000 241.000 C 131.746 207.469,132.399 209.200,120.000 209.200 C 107.354 209.200,108.000 207.250,108.000 245.453 C 108.000 280.776,107.964 280.518,113.651 285.783 C 118.327 290.112,120.303 290.377,148.000 290.382 C 175.465 290.388,177.780 290.057,182.737 285.420 C 187.172 281.272,187.993 277.727,187.997 262.700 C 187.999 256.153,188.149 252.000,188.383 252.000 C 188.594 252.000,193.949 258.790,200.283 267.088 C 215.215 286.649,215.825 287.290,221.200 289.050 C 223.826 289.909,279.920 290.413,286.287 289.634 C 295.057 288.562,299.764 282.948,299.734 273.600 C 299.711 266.161,301.921 269.310,270.000 231.249 C 255.590 214.067,243.744 199.662,243.676 199.237 C 243.593 198.714,251.274 188.812,267.543 168.475 C 297.244 131.345,295.078 134.684,294.718 126.594 C 294.368 118.730,290.486 113.495,283.400 111.333 C 279.700 110.203,222.687 110.206,219.000 111.335 C 212.853 113.219,212.560 113.520,199.000 131.888 C 193.280 139.636,188.465 145.981,188.300 145.988 C 188.135 145.994,187.994 142.715,187.987 138.700 C 187.950 119.157,184.396 112.583,172.923 110.838 C 168.863 110.220,125.503 110.313,122.000 110.947 " stroke="none" fill="#000000" fill-rule="evenodd"></path><path id="path2" d="M59.000 16.851 C 40.848 19.153,26.483 31.045,21.065 48.257 C 18.637 55.973,18.768 46.837,18.897 199.600 L 19.016 339.000 19.859 342.600 C 24.195 361.107,36.781 373.624,55.200 377.749 L 59.000 378.600 200.000 378.600 L 341.000 378.600 344.800 377.749 C 363.305 373.605,376.005 360.905,380.149 342.400 L 381.000 338.600 381.000 197.600 L 381.000 56.600 380.149 52.800 C 376.024 34.381,363.504 21.792,345.000 17.460 L 341.400 16.617 201.600 16.556 C 122.158 16.522,60.591 16.649,59.000 16.851 M331.200 46.330 C 340.429 49.633,347.436 57.247,349.380 66.085 C 349.962 68.732,350.011 81.005,349.911 199.600 L 349.800 330.200 348.918 332.510 C 345.322 341.929,338.251 348.536,329.579 350.580 C 325.660 351.504,75.140 351.504,71.221 350.580 C 62.788 348.593,54.833 341.294,51.925 332.876 L 51.000 330.200 51.000 197.600 L 51.000 65.000 51.935 62.294 C 54.706 54.270,63.535 47.152,72.611 45.624 C 73.705 45.440,131.750 45.315,201.600 45.345 L 328.600 45.400 331.200 46.330 M122.000 110.947 C 115.323 112.156,110.342 116.919,108.769 123.600 C 108.388 125.217,108.191 132.426,108.026 150.800 L 107.800 175.800 87.200 176.000 C 60.811 176.256,61.634 175.889,61.610 187.427 C 61.584 199.114,60.930 198.874,92.438 198.716 L 115.400 198.600 117.600 197.542 C 120.718 196.041,129.081 188.550,130.600 185.897 L 131.800 183.800 132.000 158.800 L 132.200 133.800 148.000 133.800 L 163.800 133.800 164.000 158.800 C 164.257 190.965,163.384 189.160,178.489 188.725 C 187.489 188.466,184.411 191.475,208.925 158.964 L 227.953 133.728 245.306 133.449 C 261.750 133.185,264.000 133.252,264.000 134.002 C 264.000 134.177,253.275 147.432,240.166 163.460 C 213.587 195.956,214.637 194.494,214.633 199.000 C 214.629 203.592,213.539 202.111,241.725 235.806 C 255.846 252.688,267.457 266.647,267.526 266.827 C 267.987 268.028,232.320 267.683,231.143 266.475 C 230.781 266.104,221.534 254.190,210.594 240.000 C 184.732 206.454,187.980 209.530,178.140 209.274 C 163.423 208.891,164.257 207.019,164.000 241.000 L 163.800 267.400 148.000 267.400 L 132.200 267.400 132.000 241.000 C 131.746 207.469,132.399 209.200,120.000 209.200 C 107.354 209.200,108.000 207.250,108.000 245.453 C 108.000 280.776,107.964 280.518,113.651 285.783 C 118.327 290.112,120.303 290.377,148.000 290.382 C 175.465 290.388,177.780 290.057,182.737 285.420 C 187.172 281.272,187.993 277.727,187.997 262.700 C 187.999 256.153,188.149 252.000,188.383 252.000 C 188.594 252.000,193.949 258.790,200.283 267.088 C 215.215 286.649,215.825 287.290,221.200 289.050 C 223.826 289.909,279.920 290.413,286.287 289.634 C 295.057 288.562,299.764 282.948,299.734 273.600 C 299.711 266.161,301.921 269.310,270.000 231.249 C 255.590 214.067,243.744 199.662,243.676 199.237 C 243.593 198.714,251.274 188.812,267.543 168.475 C 297.244 131.345,295.078 134.684,294.718 126.594 C 294.368 118.730,290.486 113.495,283.400 111.333 C 279.700 110.203,222.687 110.206,219.000 111.335 C 212.853 113.219,212.560 113.520,199.000 131.888 C 193.280 139.636,188.465 145.981,188.300 145.988 C 188.135 145.994,187.994 142.715,187.987 138.700 C 187.950 119.157,184.396 112.583,172.923 110.838 C 168.863 110.220,125.503 110.313,122.000 110.947 " stroke="none" fill="#000000" fill-rule="evenodd"></path><path id="path3" d="M59.000 16.851 C 40.848 19.153,26.483 31.045,21.065 48.257 C 18.637 55.973,18.768 46.837,18.897 199.600 L 19.016 339.000 19.859 342.600 C 24.195 361.107,36.781 373.624,55.200 377.749 L 59.000 378.600 200.000 378.600 L 341.000 378.600 344.800 377.749 C 363.305 373.605,376.005 360.905,380.149 342.400 L 381.000 338.600 381.000 197.600 L 381.000 56.600 380.149 52.800 C 376.024 34.381,363.504 21.792,345.000 17.460 L 341.400 16.617 201.600 16.556 C 122.158 16.522,60.591 16.649,59.000 16.851 M331.200 46.330 C 340.429 49.633,347.436 57.247,349.380 66.085 C 349.962 68.732,350.011 81.005,349.911 199.600 L 349.800 330.200 348.918 332.510 C 345.322 341.929,338.251 348.536,329.579 350.580 C 325.660 351.504,75.140 351.504,71.221 350.580 C 62.788 348.593,54.833 341.294,51.925 332.876 L 51.000 330.200 51.000 197.600 L 51.000 65.000 51.935 62.294 C 54.706 54.270,63.535 47.152,72.611 45.624 C 73.705 45.440,131.750 45.315,201.600 45.345 L 328.600 45.400 331.200 46.330 M122.000 110.947 C 115.323 112.156,110.342 116.919,108.769 123.600 C 108.388 125.217,108.191 132.426,108.026 150.800 L 107.800 175.800 87.200 176.000 C 60.811 176.256,61.634 175.889,61.610 187.427 C 61.584 199.114,60.930 198.874,92.438 198.716 L 115.400 198.600 117.600 197.542 C 120.718 196.041,129.081 188.550,130.600 185.897 L 131.800 183.800 132.000 158.800 L 132.200 133.800 148.000 133.800 L 163.800 133.800 164.000 158.800 C 164.257 190.965,163.384 189.160,178.489 188.725 C 187.489 188.466,184.411 191.475,208.925 158.964 L 227.953 133.728 245.306 133.449 C 261.750 133.185,264.000 133.252,264.000 134.002 C 264.000 134.177,253.275 147.432,240.166 163.460 C 213.587 195.956,214.637 194.494,214.633 199.000 C 214.629 203.592,213.539 202.111,241.725 235.806 C 255.846 252.688,267.457 266.647,267.526 266.827 C 267.987 268.028,232.320 267.683,231.143 266.475 C 230.781 266.104,221.534 254.190,210.594 240.000 C 184.732 206.454,187.980 209.530,178.140 209.274 C 163.423 208.891,164.257 207.019,164.000 241.000 L 163.800 267.400 148.000 267.400 L 132.200 267.400 132.000 241.000 C 131.746 207.469,132.399 209.200,120.000 209.200 C 107.354 209.200,108.000 207.250,108.000 245.453 C 108.000 280.776,107.964 280.518,113.651 285.783 C 118.327 290.112,120.303 290.377,148.000 290.382 C 175.465 290.388,177.780 290.057,182.737 285.420 C 187.172 281.272,187.993 277.727,187.997 262.700 C 187.999 256.153,188.149 252.000,188.383 252.000 C 188.594 252.000,193.949 258.790,200.283 267.088 C 215.215 286.649,215.825 287.290,221.200 289.050 C 223.826 289.909,279.920 290.413,286.287 289.634 C 295.057 288.562,299.764 282.948,299.734 273.600 C 299.711 266.161,301.921 269.310,270.000 231.249 C 255.590 214.067,243.744 199.662,243.676 199.237 C 243.593 198.714,251.274 188.812,267.543 168.475 C 297.244 131.345,295.078 134.684,294.718 126.594 C 294.368 118.730,290.486 113.495,283.400 111.333 C 279.700 110.203,222.687 110.206,219.000 111.335 C 212.853 113.219,212.560 113.520,199.000 131.888 C 193.280 139.636,188.465 145.981,188.300 145.988 C 188.135 145.994,187.994 142.715,187.987 138.700 C 187.950 119.157,184.396 112.583,172.923 110.838 C 168.863 110.220,125.503 110.313,122.000 110.947 " stroke="none" fill="#000000" fill-rule="evenodd"></path><path id="path4" d="M59.000 16.851 C 40.848 19.153,26.483 31.045,21.065 48.257 C 18.637 55.973,18.768 46.837,18.897 199.600 L 19.016 339.000 19.859 342.600 C 24.195 361.107,36.781 373.624,55.200 377.749 L 59.000 378.600 200.000 378.600 L 341.000 378.600 344.800 377.749 C 363.305 373.605,376.005 360.905,380.149 342.400 L 381.000 338.600 381.000 197.600 L 381.000 56.600 380.149 52.800 C 376.024 34.381,363.504 21.792,345.000 17.460 L 341.400 16.617 201.600 16.556 C 122.158 16.522,60.591 16.649,59.000 16.851 M331.200 46.330 C 340.429 49.633,347.436 57.247,349.380 66.085 C 349.962 68.732,350.011 81.005,349.911 199.600 L 349.800 330.200 348.918 332.510 C 345.322 341.929,338.251 348.536,329.579 350.580 C 325.660 351.504,75.140 351.504,71.221 350.580 C 62.788 348.593,54.833 341.294,51.925 332.876 L 51.000 330.200 51.000 197.600 L 51.000 65.000 51.935 62.294 C 54.706 54.270,63.535 47.152,72.611 45.624 C 73.705 45.440,131.750 45.315,201.600 45.345 L 328.600 45.400 331.200 46.330 M122.000 110.947 C 115.323 112.156,110.342 116.919,108.769 123.600 C 108.388 125.217,108.191 132.426,108.026 150.800 L 107.800 175.800 87.200 176.000 C 60.811 176.256,61.634 175.889,61.610 187.427 C 61.584 199.114,60.930 198.874,92.438 198.716 L 115.400 198.600 117.600 197.542 C 120.718 196.041,129.081 188.550,130.600 185.897 L 131.800 183.800 132.000 158.800 L 132.200 133.800 148.000 133.800 L 163.800 133.800 164.000 158.800 C 164.257 190.965,163.384 189.160,178.489 188.725 C 187.489 188.466,184.411 191.475,208.925 158.964 L 227.953 133.728 245.306 133.449 C 261.750 133.185,264.000 133.252,264.000 134.002 C 264.000 134.177,253.275 147.432,240.166 163.460 C 213.587 195.956,214.637 194.494,214.633 199.000 C 214.629 203.592,213.539 202.111,241.725 235.806 C 255.846 252.688,267.457 266.647,267.526 266.827 C 267.987 268.028,232.320 267.683,231.143 266.475 C 230.781 266.104,221.534 254.190,210.594 240.000 C 184.732 206.454,187.980 209.530,178.140 209.274 C 163.423 208.891,164.257 207.019,164.000 241.000 L 163.800 267.400 148.000 267.400 L 132.200 267.400 132.000 241.000 C 131.746 207.469,132.399 209.200,120.000 209.200 C 107.354 209.200,108.000 207.250,108.000 245.453 C 108.000 280.776,107.964 280.518,113.651 285.783 C 118.327 290.112,120.303 290.377,148.000 290.382 C 175.465 290.388,177.780 290.057,182.737 285.420 C 187.172 281.272,187.993 277.727,187.997 262.700 C 187.999 256.153,188.149 252.000,188.383 252.000 C 188.594 252.000,193.949 258.790,200.283 267.088 C 215.215 286.649,215.825 287.290,221.200 289.050 C 223.826 289.909,279.920 290.413,286.287 289.634 C 295.057 288.562,299.764 282.948,299.734 273.600 C 299.711 266.161,301.921 269.310,270.000 231.249 C 255.590 214.067,243.744 199.662,243.676 199.237 C 243.593 198.714,251.274 188.812,267.543 168.475 C 297.244 131.345,295.078 134.684,294.718 126.594 C 294.368 118.730,290.486 113.495,283.400 111.333 C 279.700 110.203,222.687 110.206,219.000 111.335 C 212.853 113.219,212.560 113.520,199.000 131.888 C 193.280 139.636,188.465 145.981,188.300 145.988 C 188.135 145.994,187.994 142.715,187.987 138.700 C 187.950 119.157,184.396 112.583,172.923 110.838 C 168.863 110.220,125.503 110.313,122.000 110.947 " stroke="none" fill="#000000" fill-rule="evenodd"></path></g></svg>