<svg id="svg" version="1.1" width="400" height="400" viewBox="0 0 400 400" xmlns="http://www.w3.org/2000/svg" xmlns:xlink="http://www.w3.org/1999/xlink" ><g id="svgg"><path id="path0" d="M60.019 23.778 C 59.668 24.200,59.024 24.294,57.624 24.128 C 56.406 23.984,55.607 24.065,55.430 24.351 C 55.278 24.598,54.724 24.800,54.200 24.800 C 53.676 24.800,53.136 24.980,53.000 25.200 C 52.864 25.420,52.450 25.600,52.079 25.600 C 51.198 25.600,44.200 29.077,43.581 29.823 C 43.318 30.140,42.890 30.400,42.632 30.400 C 42.018 30.400,32.800 39.618,32.800 40.232 C 32.800 40.490,32.540 40.918,32.223 41.181 C 31.477 41.800,28.000 48.798,28.000 49.679 C 28.000 50.050,27.802 50.475,27.560 50.625 C 27.314 50.777,27.218 51.390,27.343 52.014 C 27.491 52.756,27.357 53.303,26.944 53.647 C 26.502 54.013,26.388 54.569,26.549 55.563 C 26.701 56.502,26.583 57.177,26.190 57.611 C 25.621 58.240,25.215 337.054,25.782 337.971 C 25.886 338.139,26.090 339.024,26.237 339.938 C 26.383 340.852,26.659 341.600,26.851 341.600 C 27.043 341.600,27.200 342.320,27.200 343.200 C 27.200 344.080,27.380 344.800,27.600 344.800 C 27.820 344.800,28.000 345.340,28.000 346.000 C 28.000 346.660,28.180 347.200,28.400 347.200 C 28.620 347.200,28.800 347.560,28.800 348.000 C 28.800 348.440,28.980 348.800,29.200 348.800 C 29.420 348.800,29.600 349.160,29.600 349.600 C 29.600 350.040,29.780 350.400,30.000 350.400 C 30.220 350.400,30.400 350.760,30.400 351.200 C 30.400 351.640,30.580 352.000,30.800 352.000 C 31.020 352.000,31.200 352.317,31.200 352.704 C 31.200 353.091,31.560 353.632,32.000 353.907 C 32.440 354.182,32.800 354.647,32.800 354.940 C 32.800 355.635,41.965 364.800,42.660 364.800 C 42.953 364.800,43.418 365.160,43.693 365.600 C 43.968 366.040,44.509 366.400,44.896 366.400 C 45.283 366.400,45.600 366.580,45.600 366.800 C 45.600 367.020,45.960 367.200,46.400 367.200 C 46.840 367.200,47.200 367.380,47.200 367.600 C 47.200 367.820,47.560 368.000,48.000 368.000 C 48.440 368.000,48.800 368.180,48.800 368.400 C 48.800 368.620,49.160 368.800,49.600 368.800 C 50.040 368.800,50.400 368.980,50.400 369.200 C 50.400 369.420,50.940 369.600,51.600 369.600 C 52.260 369.600,52.800 369.780,52.800 370.000 C 52.800 370.220,53.520 370.400,54.400 370.400 C 55.280 370.400,56.000 370.580,56.000 370.800 C 56.000 371.020,56.720 371.200,57.600 371.200 C 59.147 371.200,59.920 372.093,58.720 372.493 C 58.425 372.592,58.510 372.757,58.941 372.922 C 59.326 373.070,59.545 373.035,59.427 372.844 C 58.937 372.052,67.535 372.000,200.000 372.000 C 332.465 372.000,341.063 372.052,340.573 372.844 C 340.455 373.035,340.674 373.070,341.059 372.922 C 341.490 372.757,341.575 372.592,341.280 372.493 C 340.080 372.093,340.853 371.200,342.400 371.200 C 343.280 371.200,344.000 371.020,344.000 370.800 C 344.000 370.580,344.720 370.400,345.600 370.400 C 346.480 370.400,347.200 370.220,347.200 370.000 C 347.200 369.780,347.740 369.600,348.400 369.600 C 349.060 369.600,349.600 369.420,349.600 369.200 C 349.600 368.980,349.960 368.800,350.400 368.800 C 350.840 368.800,351.200 368.620,351.200 368.400 C 351.200 368.180,351.560 368.000,352.000 368.000 C 352.440 368.000,352.800 367.820,352.800 367.600 C 352.800 367.380,353.160 367.200,353.600 367.200 C 354.040 367.200,354.400 367.020,354.400 366.800 C 354.400 366.580,354.717 366.400,355.104 366.400 C 355.491 366.400,356.032 366.040,356.307 365.600 C 356.582 365.160,357.047 364.800,357.340 364.800 C 357.633 364.800,359.971 362.701,362.536 360.136 C 365.101 357.571,367.200 355.233,367.200 354.940 C 367.200 354.647,367.560 354.182,368.000 353.907 C 368.440 353.632,368.800 353.091,368.800 352.704 C 368.800 352.317,368.980 352.000,369.200 352.000 C 369.420 352.000,369.600 351.640,369.600 351.200 C 369.600 350.760,369.780 350.400,370.000 350.400 C 370.220 350.400,370.400 350.040,370.400 349.600 C 370.400 349.160,370.580 348.800,370.800 348.800 C 371.020 348.800,371.200 348.440,371.200 348.000 C 371.200 347.560,371.380 347.200,371.600 347.200 C 371.820 347.200,372.000 346.660,372.000 346.000 C 372.000 345.340,372.180 344.800,372.400 344.800 C 372.620 344.800,372.800 344.080,372.800 343.200 C 372.800 342.320,372.980 341.600,373.200 341.600 C 373.420 341.600,373.600 340.700,373.600 339.600 C 373.600 338.500,373.780 337.600,374.000 337.600 C 374.732 337.600,374.535 58.210,373.803 57.602 C 373.379 57.251,373.274 56.679,373.441 55.634 C 373.611 54.570,373.504 54.018,373.055 53.646 C 372.643 53.303,372.509 52.755,372.657 52.014 C 372.782 51.390,372.686 50.777,372.440 50.625 C 372.198 50.475,372.000 50.050,372.000 49.679 C 372.000 48.798,368.523 41.800,367.777 41.181 C 367.460 40.918,367.200 40.490,367.200 40.232 C 367.200 39.618,357.982 30.400,357.368 30.400 C 357.110 30.400,356.682 30.140,356.419 29.823 C 355.800 29.077,348.802 25.600,347.921 25.600 C 347.550 25.600,347.136 25.420,347.000 25.200 C 346.864 24.980,346.324 24.800,345.800 24.800 C 345.276 24.800,344.722 24.598,344.570 24.351 C 344.393 24.065,343.594 23.984,342.376 24.128 C 340.976 24.294,340.332 24.200,339.981 23.778 C 339.256 22.904,60.744 22.904,60.019 23.778 M24.198 198.000 C 24.198 272.690,24.244 303.245,24.300 265.900 C 24.356 228.555,24.356 167.445,24.300 130.100 C 24.244 92.755,24.198 123.310,24.198 198.000 M375.798 198.000 C 375.798 272.690,375.844 303.245,375.900 265.900 C 375.956 228.555,375.956 167.445,375.900 130.100 C 375.844 92.755,375.798 123.310,375.798 198.000 M170.200 154.500 L 170.200 182.600 176.300 182.710 C 181.224 182.800,182.400 182.716,182.400 182.278 C 182.400 181.979,182.836 181.502,183.368 181.217 C 183.947 180.907,184.248 180.469,184.117 180.128 C 183.989 179.793,184.416 179.128,185.149 178.520 C 185.837 177.950,186.402 177.195,186.404 176.842 C 186.406 176.489,186.946 175.775,187.604 175.255 C 188.262 174.735,188.802 174.015,188.804 173.655 C 188.806 173.295,189.346 172.575,190.004 172.055 C 190.662 171.535,191.202 170.815,191.204 170.455 C 191.206 170.095,191.746 169.375,192.404 168.855 C 193.062 168.335,193.602 167.615,193.604 167.255 C 193.606 166.895,194.146 166.175,194.804 165.655 C 195.462 165.135,196.002 164.415,196.004 164.055 C 196.006 163.695,196.546 162.975,197.204 162.455 C 197.862 161.935,198.402 161.215,198.404 160.855 C 198.406 160.495,198.946 159.775,199.604 159.255 C 200.262 158.735,200.802 158.015,200.804 157.655 C 200.806 157.295,201.346 156.575,202.004 156.055 C 202.662 155.535,203.202 154.815,203.204 154.455 C 203.206 154.095,203.746 153.375,204.404 152.855 C 205.062 152.335,205.600 151.639,205.600 151.309 C 205.600 150.711,208.276 148.000,208.866 148.000 C 209.036 148.000,209.069 147.724,208.940 147.387 C 208.723 146.822,210.557 144.802,211.287 144.800 C 211.446 144.800,211.468 144.520,211.336 144.178 C 211.184 143.782,211.550 143.182,212.349 142.520 C 213.037 141.950,213.600 141.216,213.600 140.889 C 213.600 140.311,215.509 138.401,216.087 138.400 C 216.246 138.400,216.268 138.120,216.136 137.778 C 215.984 137.382,216.350 136.782,217.149 136.120 C 217.837 135.550,218.402 134.795,218.404 134.442 C 218.406 134.089,218.946 133.375,219.604 132.855 C 220.262 132.335,220.802 131.615,220.804 131.255 C 220.806 130.895,221.346 130.175,222.004 129.655 C 222.662 129.135,223.200 128.447,223.200 128.126 C 223.200 126.378,222.842 126.400,251.771 126.400 C 282.753 126.400,280.885 126.171,277.200 129.514 C 276.100 130.512,275.200 131.590,275.200 131.910 C 275.200 132.230,274.480 133.122,273.600 133.894 C 272.720 134.665,272.000 135.564,272.000 135.892 C 272.000 136.467,268.495 139.987,267.913 139.996 C 267.754 139.998,267.730 140.273,267.858 140.606 C 268.007 140.994,267.499 141.730,266.445 142.654 C 265.540 143.447,264.800 144.364,264.800 144.692 C 264.800 145.267,261.295 148.787,260.713 148.796 C 260.554 148.798,260.530 149.073,260.658 149.406 C 260.807 149.794,260.299 150.530,259.245 151.454 C 258.340 152.247,257.596 153.190,257.591 153.548 C 257.586 153.907,256.866 154.819,255.991 155.576 C 255.116 156.333,254.400 157.211,254.400 157.526 C 254.400 157.842,253.500 158.917,252.400 159.914 C 251.300 160.912,250.396 162.015,250.391 162.364 C 250.386 162.714,249.666 163.619,248.791 164.376 C 247.916 165.133,247.200 166.011,247.200 166.326 C 247.200 166.642,246.300 167.717,245.200 168.714 C 244.100 169.712,243.196 170.815,243.191 171.164 C 243.186 171.514,242.466 172.419,241.591 173.176 C 240.716 173.933,240.000 174.811,240.000 175.126 C 240.000 175.442,239.100 176.517,238.000 177.514 C 236.900 178.512,236.000 179.589,236.000 179.908 C 236.000 180.472,232.485 183.987,231.913 183.996 C 231.754 183.998,231.730 184.273,231.858 184.606 C 232.007 184.994,231.499 185.730,230.445 186.654 C 229.540 187.447,228.796 188.390,228.791 188.748 C 228.786 189.107,228.066 190.019,227.191 190.776 C 226.316 191.533,225.600 192.411,225.600 192.726 C 225.600 193.042,224.700 194.117,223.600 195.114 C 222.500 196.112,221.600 197.260,221.600 197.664 C 221.600 198.069,221.420 198.400,221.200 198.400 C 220.352 198.400,220.856 199.954,221.996 200.855 C 222.654 201.375,223.194 202.086,223.196 202.436 C 223.198 202.785,224.121 203.906,225.246 204.927 C 226.583 206.140,227.211 206.994,227.059 207.392 C 226.930 207.726,226.954 208.002,227.113 208.004 C 227.860 208.015,231.270 211.640,231.057 212.197 C 230.929 212.529,230.955 212.800,231.113 212.800 C 231.646 212.800,236.000 217.109,236.000 217.637 C 236.000 217.924,236.900 219.004,238.000 220.037 C 239.100 221.070,240.000 222.175,240.000 222.493 C 240.000 222.811,240.900 223.888,242.000 224.886 C 243.100 225.883,244.000 226.963,244.000 227.286 C 244.000 227.608,244.900 228.688,246.000 229.686 C 247.100 230.683,248.000 231.763,248.000 232.086 C 248.000 232.408,248.900 233.488,250.000 234.486 C 251.100 235.483,252.000 236.563,252.000 236.886 C 252.000 237.208,252.900 238.288,254.000 239.286 C 255.100 240.283,256.000 241.363,256.000 241.686 C 256.000 242.008,256.900 243.088,258.000 244.086 C 259.100 245.083,260.000 246.163,260.000 246.486 C 260.000 246.808,260.921 247.906,262.046 248.927 C 263.383 250.140,264.011 250.994,263.859 251.392 C 263.730 251.726,263.754 252.002,263.913 252.004 C 264.660 252.015,268.070 255.640,267.857 256.197 C 267.729 256.529,267.754 256.802,267.913 256.804 C 268.660 256.815,272.070 260.440,271.857 260.997 C 271.729 261.329,271.754 261.604,271.913 261.609 C 272.485 261.626,276.800 265.946,276.800 266.501 C 276.800 266.815,277.700 267.888,278.800 268.886 C 279.900 269.883,280.800 270.965,280.800 271.288 C 280.800 271.611,281.160 272.202,281.600 272.600 C 283.624 274.431,284.079 274.400,255.434 274.400 L 228.469 274.400 227.034 273.007 C 226.245 272.241,225.600 271.375,225.600 271.083 C 225.600 270.791,224.884 269.933,224.009 269.176 C 223.134 268.419,222.414 267.505,222.409 267.145 C 222.404 266.785,221.862 266.065,221.204 265.545 C 220.546 265.025,220.006 264.311,220.004 263.958 C 220.002 263.605,219.437 262.850,218.749 262.280 C 217.950 261.618,217.584 261.018,217.736 260.622 C 217.868 260.280,217.846 259.996,217.687 259.991 C 217.099 259.972,214.400 257.257,214.400 256.684 C 214.400 256.357,213.862 255.665,213.204 255.145 C 212.546 254.625,212.006 253.919,212.004 253.576 C 212.002 253.233,211.284 252.333,210.409 251.576 C 209.534 250.819,208.814 249.911,208.809 249.558 C 208.804 249.205,208.237 248.450,207.549 247.880 C 206.750 247.218,206.384 246.618,206.536 246.222 C 206.668 245.880,206.636 245.600,206.466 245.600 C 205.876 245.600,203.200 242.889,203.200 242.291 C 203.200 241.961,202.662 241.265,202.004 240.745 C 201.346 240.225,200.806 239.505,200.804 239.145 C 200.802 238.785,200.262 238.065,199.604 237.545 C 198.946 237.025,198.406 236.311,198.404 235.958 C 198.402 235.605,197.837 234.850,197.149 234.280 C 196.350 233.618,195.984 233.018,196.136 232.622 C 196.268 232.280,196.246 231.996,196.087 231.991 C 195.507 231.972,192.800 229.260,192.800 228.697 C 192.800 228.378,192.237 227.650,191.549 227.080 C 190.750 226.418,190.384 225.818,190.536 225.422 C 190.668 225.080,190.646 224.796,190.487 224.791 C 189.899 224.772,187.200 222.057,187.200 221.484 C 187.200 221.157,186.662 220.465,186.004 219.945 C 185.346 219.425,184.806 218.742,184.804 218.426 C 184.791 216.399,183.431 216.000,176.525 216.000 L 169.990 216.000 170.005 245.100 L 170.021 274.200 148.010 274.200 C 135.905 274.200,126.000 274.065,126.000 273.900 C 126.000 273.735,126.000 260.751,126.000 245.047 C 126.000 216.830,126.009 216.491,126.800 216.284 C 127.705 216.047,127.900 214.460,127.120 213.680 C 126.421 212.981,125.812 213.091,126.408 213.810 C 126.686 214.145,126.822 214.512,126.709 214.625 C 126.426 214.907,124.400 213.951,124.400 213.536 C 124.400 213.351,124.213 213.200,123.984 213.200 C 123.260 213.200,119.518 210.494,120.014 210.329 C 120.326 210.225,120.242 209.971,119.767 209.585 C 119.333 209.233,119.166 209.199,119.347 209.500 C 119.714 210.112,119.030 210.151,117.963 209.580 C 117.531 209.349,117.300 208.961,117.451 208.718 C 117.617 208.450,117.540 208.390,117.256 208.566 C 116.985 208.733,113.377 206.708,108.694 203.762 C 104.242 200.960,99.430 197.938,98.000 197.046 C 96.570 196.154,95.310 195.328,95.200 195.212 C 94.813 194.802,92.588 193.557,91.500 193.142 C 88.949 192.168,91.145 192.004,108.100 191.904 L 125.800 191.800 125.800 159.100 L 125.800 126.400 148.000 126.400 L 170.200 126.400 170.200 154.500 M126.800 128.000 C 126.800 128.262,134.133 128.400,148.000 128.400 C 161.867 128.400,169.200 128.262,169.200 128.000 C 169.200 127.738,161.867 127.600,148.000 127.600 C 134.133 127.600,126.800 127.738,126.800 128.000 M225.000 128.000 C 224.722 128.450,238.058 128.459,251.800 128.018 C 259.045 127.786,257.796 127.739,242.724 127.675 C 231.423 127.626,225.160 127.741,225.000 128.000 M274.928 127.893 C 276.202 128.025,276.376 128.147,275.979 128.626 C 275.716 128.942,275.661 129.200,275.855 129.200 C 276.049 129.200,276.432 128.840,276.707 128.400 C 277.182 127.639,277.113 127.603,275.303 127.667 C 273.520 127.730,273.497 127.745,274.928 127.893 M272.093 133.200 C 271.818 133.640,271.731 134.000,271.900 134.000 C 272.069 134.000,272.432 133.640,272.707 133.200 C 272.982 132.760,273.069 132.400,272.900 132.400 C 272.731 132.400,272.368 132.760,272.093 133.200 M217.693 137.200 C 217.418 137.640,217.331 138.000,217.500 138.000 C 217.669 138.000,218.032 137.640,218.307 137.200 C 218.582 136.760,218.669 136.400,218.500 136.400 C 218.331 136.400,217.968 136.760,217.693 137.200 M268.893 137.200 C 268.618 137.640,268.531 138.000,268.700 138.000 C 268.869 138.000,269.232 137.640,269.507 137.200 C 269.782 136.760,269.869 136.400,269.700 136.400 C 269.531 136.400,269.168 136.760,268.893 137.200 M215.293 140.400 C 215.018 140.840,214.931 141.200,215.100 141.200 C 215.269 141.200,215.632 140.840,215.907 140.400 C 216.182 139.960,216.269 139.600,216.100 139.600 C 215.931 139.600,215.568 139.960,215.293 140.400 M212.893 143.600 C 212.618 144.040,212.531 144.400,212.700 144.400 C 212.869 144.400,213.232 144.040,213.507 143.600 C 213.782 143.160,213.869 142.800,213.700 142.800 C 213.531 142.800,213.168 143.160,212.893 143.600 M261.693 146.000 C 261.418 146.440,261.331 146.800,261.500 146.800 C 261.669 146.800,262.032 146.440,262.307 146.000 C 262.582 145.560,262.669 145.200,262.500 145.200 C 262.331 145.200,261.968 145.560,261.693 146.000 M210.493 146.800 C 210.218 147.240,210.131 147.600,210.300 147.600 C 210.469 147.600,210.832 147.240,211.107 146.800 C 211.382 146.360,211.469 146.000,211.300 146.000 C 211.131 146.000,210.768 146.360,210.493 146.800 M251.293 158.800 C 251.018 159.240,250.931 159.600,251.100 159.600 C 251.269 159.600,251.632 159.240,251.907 158.800 C 252.182 158.360,252.269 158.000,252.100 158.000 C 251.931 158.000,251.568 158.360,251.293 158.800 M240.093 172.400 C 239.818 172.840,239.731 173.200,239.900 173.200 C 240.069 173.200,240.432 172.840,240.707 172.400 C 240.982 171.960,241.069 171.600,240.900 171.600 C 240.731 171.600,240.368 171.960,240.093 172.400 M188.093 176.400 C 187.818 176.840,187.731 177.200,187.900 177.200 C 188.069 177.200,188.432 176.840,188.707 176.400 C 188.982 175.960,189.069 175.600,188.900 175.600 C 188.731 175.600,188.368 175.960,188.093 176.400 M185.693 179.600 C 185.418 180.040,185.331 180.400,185.500 180.400 C 185.669 180.400,186.032 180.040,186.307 179.600 C 186.582 179.160,186.669 178.800,186.500 178.800 C 186.331 178.800,185.968 179.160,185.693 179.600 M232.893 181.200 C 232.618 181.640,232.531 182.000,232.700 182.000 C 232.869 182.000,233.232 181.640,233.507 181.200 C 233.782 180.760,233.869 180.400,233.700 180.400 C 233.531 180.400,233.168 180.760,232.893 181.200 M183.100 182.833 C 182.715 183.255,182.552 183.600,182.738 183.600 C 182.924 183.600,183.402 183.240,183.800 182.800 C 184.198 182.360,184.361 182.015,184.162 182.033 C 183.963 182.052,183.485 182.412,183.100 182.833 M94.744 194.013 C 95.655 194.772,96.400 195.030,96.400 194.587 C 96.400 194.470,96.025 194.236,95.567 194.066 C 95.109 193.896,97.944 193.821,101.867 193.898 C 105.790 193.975,112.780 193.877,117.400 193.680 C 125.672 193.328,125.556 193.322,109.800 193.274 C 93.840 193.227,93.802 193.229,94.744 194.013 M102.000 198.420 C 103.387 199.361,104.178 199.635,103.200 198.836 C 102.650 198.386,102.020 198.017,101.800 198.015 C 101.580 198.013,101.670 198.196,102.000 198.420 M106.371 200.958 C 106.913 201.618,109.200 202.996,109.200 202.663 C 109.200 202.577,108.435 202.002,107.500 201.385 C 106.539 200.751,106.048 200.566,106.371 200.958 M220.093 201.200 C 220.368 201.640,220.731 202.000,220.900 202.000 C 221.069 202.000,220.982 201.640,220.707 201.200 C 220.432 200.760,220.069 200.400,219.900 200.400 C 219.731 200.400,219.818 200.760,220.093 201.200 M110.289 203.630 C 110.778 204.139,111.278 204.455,111.401 204.332 C 111.524 204.209,111.124 203.792,110.512 203.406 L 109.400 202.704 110.289 203.630 M224.093 206.000 C 224.368 206.440,224.731 206.800,224.900 206.800 C 225.069 206.800,224.982 206.440,224.707 206.000 C 224.432 205.560,224.069 205.200,223.900 205.200 C 223.731 205.200,223.818 205.560,224.093 206.000 M173.500 214.698 C 175.315 214.772,178.285 214.772,180.100 214.698 C 181.915 214.623,180.430 214.563,176.800 214.563 C 173.170 214.563,171.685 214.623,173.500 214.698 M186.493 218.800 C 186.768 219.240,187.131 219.600,187.300 219.600 C 187.469 219.600,187.382 219.240,187.107 218.800 C 186.832 218.360,186.469 218.000,186.300 218.000 C 186.131 218.000,186.218 218.360,186.493 218.800 M236.093 220.400 C 236.368 220.840,236.731 221.200,236.900 221.200 C 237.069 221.200,236.982 220.840,236.707 220.400 C 236.432 219.960,236.069 219.600,235.900 219.600 C 235.731 219.600,235.818 219.960,236.093 220.400 M244.400 230.167 C 244.400 230.588,245.605 231.728,245.821 231.512 C 245.922 231.411,245.644 231.002,245.202 230.602 C 244.761 230.203,244.400 230.007,244.400 230.167 M205.693 243.600 C 205.968 244.040,206.331 244.400,206.500 244.400 C 206.669 244.400,206.582 244.040,206.307 243.600 C 206.032 243.160,205.669 242.800,205.500 242.800 C 205.331 242.800,205.418 243.160,205.693 243.600 M256.893 245.200 C 257.168 245.640,257.531 246.000,257.700 246.000 C 257.869 246.000,257.782 245.640,257.507 245.200 C 257.232 244.760,256.869 244.400,256.700 244.400 C 256.531 244.400,256.618 244.760,256.893 245.200 M208.093 246.800 C 208.368 247.240,208.731 247.600,208.900 247.600 C 209.069 247.600,208.982 247.240,208.707 246.800 C 208.432 246.360,208.069 246.000,207.900 246.000 C 207.731 246.000,207.818 246.360,208.093 246.800 M260.893 250.000 C 261.168 250.440,261.531 250.800,261.700 250.800 C 261.869 250.800,261.782 250.440,261.507 250.000 C 261.232 249.560,260.869 249.200,260.700 249.200 C 260.531 249.200,260.618 249.560,260.893 250.000 M213.693 254.000 C 213.968 254.440,214.331 254.800,214.500 254.800 C 214.669 254.800,214.582 254.440,214.307 254.000 C 214.032 253.560,213.669 253.200,213.500 253.200 C 213.331 253.200,213.418 253.560,213.693 254.000 M219.293 261.200 C 219.568 261.640,219.931 262.000,220.100 262.000 C 220.269 262.000,220.182 261.640,219.907 261.200 C 219.632 260.760,219.269 260.400,219.100 260.400 C 218.931 260.400,219.018 260.760,219.293 261.200 M224.893 268.400 C 225.168 268.840,225.531 269.200,225.700 269.200 C 225.869 269.200,225.782 268.840,225.507 268.400 C 225.232 267.960,224.869 267.600,224.700 267.600 C 224.531 267.600,224.618 267.960,224.893 268.400 M276.851 269.098 C 277.744 270.234,278.326 270.800,278.602 270.800 C 278.987 270.800,277.058 268.448,276.651 268.422 C 276.459 268.410,276.549 268.714,276.851 269.098 M227.251 271.498 C 228.616 273.234,228.414 273.203,237.671 273.115 L 246.600 273.030 237.664 272.815 C 229.006 272.607,228.705 272.572,228.000 271.700 C 227.599 271.205,227.144 270.800,226.987 270.800 C 226.830 270.800,226.949 271.114,227.251 271.498 M279.756 272.328 C 279.958 272.655,278.233 272.813,273.517 272.901 L 267.000 273.021 273.700 273.111 C 279.922 273.194,281.275 272.988,279.938 272.162 C 279.656 271.987,279.585 272.052,279.756 272.328 M24.400 339.189 C 24.400 339.829,24.580 340.464,24.800 340.600 C 25.020 340.736,25.200 340.581,25.200 340.256 C 25.200 339.931,25.300 339.404,25.423 339.084 C 25.546 338.765,25.366 338.396,25.023 338.264 C 24.547 338.082,24.400 338.300,24.400 339.189 M131.100 373.500 C 168.995 373.556,231.005 373.556,268.900 373.500 C 306.795 373.444,275.790 373.398,200.000 373.398 C 124.210 373.398,93.205 373.444,131.100 373.500 " stroke="none" fill="#000000" fill-rule="evenodd"></path><path id="path1" d="M60.000 23.131 C 60.000 23.313,60.540 23.382,61.200 23.285 C 61.860 23.188,62.400 23.040,62.400 22.955 C 62.400 22.870,61.860 22.800,61.200 22.800 C 60.540 22.800,60.000 22.949,60.000 23.131 M337.600 22.955 C 337.600 23.040,338.140 23.188,338.800 23.285 C 339.460 23.382,340.000 23.313,340.000 23.131 C 340.000 22.949,339.460 22.800,338.800 22.800 C 338.140 22.800,337.600 22.870,337.600 22.955 M55.034 24.257 C 54.845 24.748,54.910 24.812,55.291 24.510 C 55.571 24.289,56.070 24.007,56.400 23.885 C 56.810 23.734,56.728 23.653,56.143 23.632 C 55.671 23.614,55.172 23.895,55.034 24.257 M343.600 23.885 C 343.930 24.007,344.429 24.289,344.709 24.510 C 345.090 24.812,345.155 24.748,344.966 24.257 C 344.828 23.895,344.329 23.614,343.857 23.632 C 343.272 23.653,343.190 23.734,343.600 23.885 M40.175 32.100 L 39.000 33.400 40.300 32.225 C 41.015 31.579,41.600 30.994,41.600 30.925 C 41.600 30.616,41.270 30.888,40.175 32.100 M358.400 30.925 C 358.400 30.994,358.985 31.579,359.700 32.225 L 361.000 33.400 359.825 32.100 C 358.730 30.888,358.400 30.616,358.400 30.925 M34.175 38.100 L 33.000 39.400 34.300 38.225 C 35.015 37.579,35.600 36.994,35.600 36.925 C 35.600 36.616,35.270 36.888,34.175 38.100 M364.400 36.925 C 364.400 36.994,364.985 37.579,365.700 38.225 L 367.000 39.400 365.825 38.100 C 364.730 36.888,364.400 36.616,364.400 36.925 M31.643 41.223 C 31.117 41.661,30.771 42.105,30.875 42.208 C 30.979 42.312,31.486 41.948,32.001 41.398 C 33.124 40.204,32.962 40.125,31.643 41.223 M367.970 41.332 C 368.989 42.454,369.208 42.593,369.187 42.100 C 369.181 41.935,368.686 41.454,368.087 41.032 L 367.000 40.264 367.970 41.332 M25.200 59.000 C 25.200 59.770,25.270 60.400,25.356 60.400 C 25.442 60.400,25.586 59.770,25.676 59.000 C 25.766 58.230,25.696 57.600,25.520 57.600 C 25.344 57.600,25.200 58.230,25.200 59.000 M374.324 59.000 C 374.414 59.770,374.558 60.400,374.644 60.400 C 374.730 60.400,374.800 59.770,374.800 59.000 C 374.800 58.230,374.656 57.600,374.480 57.600 C 374.304 57.600,374.234 58.230,374.324 59.000 M125.800 159.100 L 125.800 191.800 108.100 191.904 C 91.145 192.004,88.949 192.168,91.500 193.142 C 92.588 193.557,94.813 194.802,95.200 195.212 C 95.310 195.328,96.570 196.154,98.000 197.047 C 99.430 197.940,104.557 201.157,109.393 204.197 C 117.502 209.294,121.490 211.440,118.806 209.261 C 118.259 208.818,117.740 208.526,117.653 208.614 C 117.565 208.701,117.145 208.329,116.718 207.786 C 116.291 207.244,115.685 206.800,115.371 206.800 C 115.057 206.800,114.800 206.620,114.800 206.400 C 114.800 206.180,114.440 206.000,114.000 206.000 C 113.560 206.000,113.200 205.850,113.200 205.668 C 113.200 205.485,112.705 205.084,112.100 204.778 C 111.495 204.471,110.528 203.856,109.950 203.410 C 109.373 202.965,108.383 202.290,107.750 201.911 C 106.104 200.926,105.031 200.231,104.800 200.000 C 104.690 199.890,103.733 199.350,102.674 198.800 C 101.614 198.250,100.435 197.530,100.053 197.200 C 99.225 196.484,97.927 195.706,95.925 194.727 C 92.924 193.259,93.482 193.200,110.376 193.200 L 126.800 193.200 126.800 160.400 L 126.800 127.600 148.000 127.600 L 169.200 127.600 169.200 154.938 C 169.200 187.412,168.226 183.600,176.524 183.600 L 182.385 183.600 183.793 182.233 C 184.567 181.482,185.200 180.706,185.200 180.509 C 185.200 180.312,185.520 179.802,185.911 179.375 C 186.302 178.949,187.061 177.970,187.598 177.200 C 188.135 176.430,189.074 175.260,189.685 174.600 C 190.296 173.940,190.797 173.255,190.798 173.078 C 190.799 172.901,191.339 172.181,191.998 171.478 C 192.657 170.775,193.197 170.055,193.198 169.878 C 193.199 169.701,193.739 168.981,194.398 168.278 C 195.057 167.575,195.597 166.790,195.598 166.533 C 195.599 166.277,195.742 166.007,195.915 165.933 C 196.088 165.860,196.853 164.996,197.615 164.014 C 198.377 163.032,199.315 161.873,199.700 161.438 C 200.085 161.004,200.400 160.479,200.400 160.271 C 200.400 160.064,200.724 159.603,201.119 159.247 C 201.514 158.891,202.277 157.970,202.815 157.200 C 203.352 156.430,204.288 155.278,204.896 154.641 C 205.503 154.003,206.000 153.326,206.000 153.137 C 206.000 152.948,206.540 152.228,207.200 151.537 C 207.860 150.846,208.400 150.078,208.400 149.829 C 208.400 149.580,208.760 149.117,209.200 148.800 C 209.640 148.483,210.000 148.027,210.000 147.787 C 210.000 147.547,210.320 147.002,210.711 146.575 C 211.102 146.149,211.858 145.170,212.392 144.400 C 212.925 143.630,213.469 142.910,213.600 142.800 C 213.731 142.690,214.271 141.970,214.800 141.200 C 215.329 140.430,215.869 139.710,216.000 139.600 C 216.131 139.490,216.674 138.770,217.206 138.000 C 217.739 137.230,218.674 136.060,219.285 135.400 C 219.896 134.740,220.397 133.990,220.398 133.733 C 220.399 133.477,220.552 133.207,220.737 133.133 C 220.923 133.060,221.937 131.860,222.991 130.467 C 225.428 127.246,222.015 127.577,251.520 127.696 L 277.240 127.800 275.769 129.400 C 274.960 130.280,273.830 131.630,273.259 132.400 C 272.687 133.170,271.720 134.297,271.110 134.903 C 270.499 135.510,270.000 136.153,270.000 136.331 C 270.000 136.510,268.921 137.813,267.602 139.228 C 266.283 140.643,265.203 142.010,265.202 142.267 C 265.201 142.523,265.058 142.793,264.885 142.867 C 264.712 142.940,263.947 143.807,263.185 144.794 C 262.423 145.781,261.305 147.068,260.700 147.655 C 260.095 148.241,259.600 148.874,259.600 149.060 C 259.600 149.247,258.520 150.570,257.200 152.000 C 255.880 153.430,254.800 154.753,254.800 154.940 C 254.800 155.126,254.260 155.783,253.600 156.400 C 252.940 157.017,252.400 157.688,252.400 157.893 C 252.400 158.098,251.325 159.421,250.011 160.833 C 248.697 162.245,247.617 163.553,247.611 163.740 C 247.605 163.926,247.060 164.583,246.400 165.200 C 245.740 165.817,245.196 166.474,245.191 166.660 C 245.186 166.847,244.532 167.720,243.738 168.600 C 242.944 169.480,241.823 170.830,241.248 171.600 C 240.673 172.370,239.707 173.477,239.101 174.060 C 238.496 174.644,237.996 175.274,237.991 175.460 C 237.986 175.647,237.332 176.520,236.538 177.400 C 235.744 178.280,234.627 179.630,234.057 180.400 C 233.487 181.170,232.520 182.297,231.910 182.903 C 231.299 183.510,230.798 184.140,230.796 184.303 C 230.794 184.467,229.720 185.770,228.411 187.200 C 227.101 188.630,226.023 189.961,226.015 190.157 C 226.007 190.353,225.460 191.029,224.800 191.660 C 224.140 192.291,223.600 192.950,223.600 193.124 C 223.600 193.299,222.703 194.422,221.606 195.621 C 219.755 197.645,218.779 200.400,219.914 200.400 C 220.086 200.400,220.524 200.895,220.886 201.500 C 221.248 202.105,222.143 203.230,222.875 204.000 C 223.607 204.770,224.648 206.030,225.188 206.800 C 225.727 207.570,226.671 208.677,227.285 209.260 C 227.898 209.844,228.400 210.479,228.400 210.673 C 228.400 210.867,229.300 211.969,230.400 213.122 C 231.500 214.275,232.400 215.354,232.400 215.519 C 232.400 215.685,233.261 216.715,234.313 217.810 C 235.366 218.904,236.660 220.417,237.191 221.171 C 237.721 221.924,238.626 223.004,239.201 223.571 C 239.777 224.137,240.623 225.140,241.081 225.800 C 241.540 226.460,242.834 227.988,243.958 229.196 C 245.081 230.404,246.000 231.527,246.000 231.693 C 246.000 231.858,246.501 232.490,247.113 233.097 C 247.725 233.703,249.028 235.190,250.007 236.400 C 250.987 237.610,251.884 238.690,252.000 238.800 C 252.116 238.910,253.015 239.990,253.998 241.200 C 254.981 242.410,256.061 243.670,256.397 244.000 C 256.734 244.330,257.514 245.279,258.132 246.109 C 258.749 246.939,259.647 248.020,260.127 248.512 C 260.607 249.003,261.507 250.083,262.127 250.912 C 262.747 251.740,263.692 252.856,264.227 253.391 C 264.762 253.926,265.200 254.512,265.200 254.694 C 265.200 254.876,266.100 255.969,267.200 257.122 C 268.300 258.275,269.200 259.355,269.200 259.522 C 269.200 259.689,270.064 260.730,271.119 261.837 C 272.174 262.944,273.415 264.378,273.877 265.025 C 274.338 265.671,275.634 267.188,276.758 268.396 C 277.881 269.604,278.800 270.776,278.800 271.000 C 278.800 271.224,279.160 271.632,279.600 271.907 C 280.040 272.182,280.400 272.585,280.400 272.803 C 280.400 273.441,228.877 273.339,228.258 272.700 C 227.992 272.425,227.334 271.570,226.798 270.800 C 226.261 270.030,225.502 269.051,225.111 268.625 C 224.720 268.198,224.400 267.679,224.400 267.471 C 224.400 267.264,224.083 266.803,223.696 266.447 C 223.308 266.091,222.518 265.170,221.940 264.400 C 221.362 263.630,220.420 262.460,219.845 261.800 C 219.271 261.140,218.801 260.447,218.800 260.260 C 218.800 260.074,218.260 259.417,217.600 258.800 C 216.940 258.183,216.399 257.526,216.398 257.340 C 216.397 257.153,215.896 256.460,215.285 255.800 C 214.674 255.140,213.735 253.970,213.198 253.200 C 212.661 252.430,211.902 251.451,211.511 251.025 C 211.120 250.598,210.800 250.085,210.800 249.885 C 210.800 249.685,210.298 249.044,209.685 248.460 C 209.071 247.877,208.131 246.770,207.595 246.000 C 207.060 245.230,206.302 244.251,205.911 243.825 C 205.520 243.398,205.200 242.879,205.200 242.671 C 205.200 242.464,204.883 242.003,204.496 241.647 C 204.108 241.291,203.319 240.370,202.741 239.600 C 202.163 238.830,201.294 237.750,200.810 237.200 C 200.326 236.650,199.637 235.705,199.279 235.100 C 198.920 234.495,198.486 234.000,198.314 234.000 C 198.141 234.000,198.000 233.757,198.000 233.459 C 198.000 233.162,197.505 232.393,196.900 231.750 C 196.295 231.108,195.308 229.927,194.706 229.126 C 194.104 228.325,193.378 227.429,193.093 227.135 C 192.807 226.841,192.138 225.970,191.606 225.200 C 191.074 224.430,190.539 223.710,190.417 223.600 C 190.295 223.490,189.704 222.741,189.104 221.935 C 188.503 221.129,187.778 220.229,187.493 219.935 C 187.207 219.641,186.532 218.770,185.992 218.000 C 183.597 214.582,184.226 214.800,176.742 214.800 C 170.514 214.800,169.998 214.856,169.614 215.574 C 169.340 216.086,169.200 225.944,169.200 244.774 L 169.200 273.200 148.000 273.200 L 126.800 273.200 126.800 244.800 C 126.800 226.133,126.663 216.400,126.400 216.400 C 126.137 216.400,126.000 226.200,126.000 245.000 C 126.000 260.730,126.000 273.735,126.000 273.900 C 126.000 274.065,135.905 274.200,148.010 274.200 L 170.021 274.200 170.005 245.100 L 169.990 216.000 176.525 216.000 C 183.431 216.000,184.791 216.399,184.804 218.426 C 184.806 218.742,185.346 219.425,186.004 219.945 C 186.662 220.465,187.200 221.157,187.200 221.484 C 187.200 222.057,189.899 224.772,190.487 224.791 C 190.646 224.796,190.668 225.080,190.536 225.422 C 190.384 225.818,190.750 226.418,191.549 227.080 C 192.237 227.650,192.800 228.378,192.800 228.697 C 192.800 229.260,195.507 231.972,196.087 231.991 C 196.246 231.996,196.268 232.280,196.136 232.622 C 195.984 233.018,196.350 233.618,197.149 234.280 C 197.837 234.850,198.402 235.605,198.404 235.958 C 198.406 236.311,198.946 237.025,199.604 237.545 C 200.262 238.065,200.802 238.785,200.804 239.145 C 200.806 239.505,201.346 240.225,202.004 240.745 C 202.662 241.265,203.200 241.961,203.200 242.291 C 203.200 242.889,205.876 245.600,206.466 245.600 C 206.636 245.600,206.668 245.880,206.536 246.222 C 206.384 246.618,206.750 247.218,207.549 247.880 C 208.237 248.450,208.804 249.205,208.809 249.558 C 208.814 249.911,209.534 250.819,210.409 251.576 C 211.284 252.333,212.002 253.233,212.004 253.576 C 212.006 253.919,212.546 254.625,213.204 255.145 C 213.862 255.665,214.400 256.357,214.400 256.684 C 214.400 257.257,217.099 259.972,217.687 259.991 C 217.846 259.996,217.868 260.280,217.736 260.622 C 217.584 261.018,217.950 261.618,218.749 262.280 C 219.437 262.850,220.002 263.605,220.004 263.958 C 220.006 264.311,220.546 265.025,221.204 265.545 C 221.862 266.065,222.404 266.785,222.409 267.145 C 222.414 267.505,223.134 268.419,224.009 269.176 C 224.884 269.933,225.600 270.791,225.600 271.083 C 225.600 271.375,226.245 272.241,227.034 273.007 L 228.469 274.400 255.434 274.400 C 284.079 274.400,283.624 274.431,281.600 272.600 C 281.160 272.202,280.800 271.611,280.800 271.288 C 280.800 270.965,279.900 269.883,278.800 268.886 C 277.700 267.888,276.800 266.815,276.800 266.501 C 276.800 265.946,272.485 261.626,271.913 261.609 C 271.754 261.604,271.729 261.329,271.857 260.997 C 272.070 260.440,268.660 256.815,267.913 256.804 C 267.754 256.802,267.729 256.529,267.857 256.197 C 268.070 255.640,264.660 252.015,263.913 252.004 C 263.754 252.002,263.730 251.726,263.859 251.392 C 264.011 250.994,263.383 250.140,262.046 248.927 C 260.921 247.906,260.000 246.808,260.000 246.486 C 260.000 246.163,259.100 245.083,258.000 244.086 C 256.900 243.088,256.000 242.008,256.000 241.686 C 256.000 241.363,255.100 240.283,254.000 239.286 C 252.900 238.288,252.000 237.208,252.000 236.886 C 252.000 236.563,251.100 235.483,250.000 234.486 C 248.900 233.488,248.000 232.408,248.000 232.086 C 248.000 231.763,247.100 230.683,246.000 229.686 C 244.900 228.688,244.000 227.608,244.000 227.286 C 244.000 226.963,243.100 225.883,242.000 224.886 C 240.900 223.888,240.000 222.811,240.000 222.493 C 240.000 222.175,239.100 221.070,238.000 220.037 C 236.900 219.004,236.000 217.924,236.000 217.637 C 236.000 217.109,231.646 212.800,231.113 212.800 C 230.955 212.800,230.929 212.529,231.057 212.197 C 231.270 211.640,227.860 208.015,227.113 208.004 C 226.954 208.002,226.930 207.726,227.059 207.392 C 227.211 206.994,226.583 206.140,225.246 204.927 C 224.121 203.906,223.198 202.785,223.196 202.436 C 223.194 202.086,222.654 201.375,221.996 200.855 C 220.856 199.954,220.352 198.400,221.200 198.400 C 221.420 198.400,221.600 198.069,221.600 197.664 C 221.600 197.260,222.500 196.112,223.600 195.114 C 224.700 194.117,225.600 193.042,225.600 192.726 C 225.600 192.411,226.316 191.533,227.191 190.776 C 228.066 190.019,228.786 189.107,228.791 188.748 C 228.796 188.390,229.540 187.447,230.445 186.654 C 231.499 185.730,232.007 184.994,231.858 184.606 C 231.730 184.273,231.754 183.998,231.913 183.996 C 232.485 183.987,236.000 180.472,236.000 179.908 C 236.000 179.589,236.900 178.512,238.000 177.514 C 239.100 176.517,240.000 175.442,240.000 175.126 C 240.000 174.811,240.716 173.933,241.591 173.176 C 242.466 172.419,243.186 171.514,243.191 171.164 C 243.196 170.815,244.100 169.712,245.200 168.714 C 246.300 167.717,247.200 166.642,247.200 166.326 C 247.200 166.011,247.916 165.133,248.791 164.376 C 249.666 163.619,250.386 162.714,250.391 162.364 C 250.396 162.015,251.300 160.912,252.400 159.914 C 253.500 158.917,254.400 157.842,254.400 157.526 C 254.400 157.211,255.116 156.333,255.991 155.576 C 256.866 154.819,257.586 153.907,257.591 153.548 C 257.596 153.190,258.340 152.247,259.245 151.454 C 260.299 150.530,260.807 149.794,260.658 149.406 C 260.530 149.073,260.554 148.798,260.713 148.796 C 261.295 148.787,264.800 145.267,264.800 144.692 C 264.800 144.364,265.540 143.447,266.445 142.654 C 267.499 141.730,268.007 140.994,267.858 140.606 C 267.730 140.273,267.754 139.998,267.913 139.996 C 268.495 139.987,272.000 136.467,272.000 135.892 C 272.000 135.564,272.720 134.665,273.600 133.894 C 274.480 133.122,275.200 132.230,275.200 131.910 C 275.200 131.590,276.100 130.512,277.200 129.514 C 280.885 126.171,282.753 126.400,251.771 126.400 C 222.842 126.400,223.200 126.378,223.200 128.126 C 223.200 128.447,222.662 129.135,222.004 129.655 C 221.346 130.175,220.806 130.895,220.804 131.255 C 220.802 131.615,220.262 132.335,219.604 132.855 C 218.946 133.375,218.406 134.089,218.404 134.442 C 218.402 134.795,217.837 135.550,217.149 136.120 C 216.350 136.782,215.984 137.382,216.136 137.778 C 216.268 138.120,216.246 138.400,216.087 138.400 C 215.509 138.401,213.600 140.311,213.600 140.889 C 213.600 141.216,213.037 141.950,212.349 142.520 C 211.550 143.182,211.184 143.782,211.336 144.178 C 211.468 144.520,211.446 144.800,211.287 144.800 C 210.557 144.802,208.723 146.822,208.940 147.387 C 209.069 147.724,209.036 148.000,208.866 148.000 C 208.276 148.000,205.600 150.711,205.600 151.309 C 205.600 151.639,205.062 152.335,204.404 152.855 C 203.746 153.375,203.206 154.095,203.204 154.455 C 203.202 154.815,202.662 155.535,202.004 156.055 C 201.346 156.575,200.806 157.295,200.804 157.655 C 200.802 158.015,200.262 158.735,199.604 159.255 C 198.946 159.775,198.406 160.495,198.404 160.855 C 198.402 161.215,197.862 161.935,197.204 162.455 C 196.546 162.975,196.006 163.695,196.004 164.055 C 196.002 164.415,195.462 165.135,194.804 165.655 C 194.146 166.175,193.606 166.895,193.604 167.255 C 193.602 167.615,193.062 168.335,192.404 168.855 C 191.746 169.375,191.206 170.095,191.204 170.455 C 191.202 170.815,190.662 171.535,190.004 172.055 C 189.346 172.575,188.806 173.295,188.804 173.655 C 188.802 174.015,188.262 174.735,187.604 175.255 C 186.946 175.775,186.406 176.489,186.404 176.842 C 186.402 177.195,185.837 177.950,185.149 178.520 C 184.416 179.128,183.989 179.793,184.117 180.128 C 184.248 180.469,183.947 180.907,183.368 181.217 C 182.836 181.502,182.400 181.979,182.400 182.278 C 182.400 182.716,181.224 182.800,176.300 182.710 L 170.200 182.600 170.200 154.500 L 170.200 126.400 148.000 126.400 L 125.800 126.400 125.800 159.100 M374.499 248.300 C 374.433 307.501,374.265 337.600,374.000 337.600 C 373.780 337.600,373.600 338.500,373.600 339.600 C 373.600 340.700,373.420 341.600,373.200 341.600 C 372.980 341.600,372.800 342.320,372.800 343.200 C 372.800 344.080,372.620 344.800,372.400 344.800 C 372.180 344.800,372.000 345.340,372.000 346.000 C 372.000 346.660,371.820 347.200,371.600 347.200 C 371.380 347.200,371.200 347.560,371.200 348.000 C 371.200 348.440,371.020 348.800,370.800 348.800 C 370.580 348.800,370.400 349.160,370.400 349.600 C 370.400 350.040,370.220 350.400,370.000 350.400 C 369.780 350.400,369.600 350.760,369.600 351.200 C 369.600 351.640,369.420 352.000,369.200 352.000 C 368.980 352.000,368.800 352.317,368.800 352.704 C 368.800 353.091,368.440 353.632,368.000 353.907 C 367.560 354.182,367.200 354.647,367.200 354.940 C 367.200 355.635,358.035 364.800,357.340 364.800 C 357.047 364.800,356.582 365.160,356.307 365.600 C 356.032 366.040,355.491 366.400,355.104 366.400 C 354.717 366.400,354.400 366.580,354.400 366.800 C 354.400 367.020,354.040 367.200,353.600 367.200 C 353.160 367.200,352.800 367.380,352.800 367.600 C 352.800 367.820,352.440 368.000,352.000 368.000 C 351.560 368.000,351.200 368.180,351.200 368.400 C 351.200 368.620,350.840 368.800,350.400 368.800 C 349.960 368.800,349.600 368.980,349.600 369.200 C 349.600 369.420,349.060 369.600,348.400 369.600 C 347.740 369.600,347.200 369.780,347.200 370.000 C 347.200 370.220,346.480 370.400,345.600 370.400 C 344.720 370.400,344.000 370.580,344.000 370.800 C 344.000 371.020,343.280 371.200,342.400 371.200 C 341.304 371.200,340.800 371.374,340.800 371.753 C 340.800 372.058,340.395 372.430,339.900 372.580 C 339.251 372.778,339.159 372.918,339.570 373.084 C 339.887 373.211,340.449 372.933,340.834 372.457 C 341.542 371.583,344.728 371.146,344.203 371.995 C 344.057 372.232,344.240 372.283,344.659 372.122 C 345.090 371.957,345.175 371.792,344.880 371.693 C 343.812 371.337,344.501 370.800,346.024 370.800 C 347.149 370.800,347.560 370.942,347.362 371.262 C 347.189 371.541,347.252 371.615,347.521 371.449 C 347.765 371.298,347.864 370.910,347.740 370.587 C 347.578 370.167,347.801 370.000,348.524 370.000 C 349.079 370.000,349.624 370.225,349.735 370.500 C 349.846 370.775,349.951 370.595,349.968 370.100 C 349.990 369.477,350.246 369.200,350.800 369.200 C 351.240 369.200,351.600 369.020,351.600 368.800 C 351.600 368.580,351.960 368.400,352.400 368.400 C 352.840 368.400,353.200 368.220,353.200 368.000 C 353.200 367.780,353.560 367.600,354.000 367.600 C 354.440 367.600,354.800 367.420,354.800 367.200 C 354.800 366.980,355.117 366.800,355.504 366.800 C 355.891 366.800,356.432 366.440,356.707 366.000 C 356.982 365.560,357.464 365.200,357.779 365.200 C 358.094 365.200,360.107 363.394,362.253 361.187 C 364.412 358.964,366.381 357.261,366.664 357.369 C 366.945 357.477,367.298 357.365,367.449 357.121 C 367.615 356.852,367.541 356.789,367.262 356.962 C 367.008 357.119,366.800 357.057,366.800 356.824 C 366.800 356.591,366.980 356.400,367.200 356.400 C 367.420 356.400,367.600 356.042,367.600 355.603 C 367.600 355.165,367.960 354.582,368.400 354.307 C 368.840 354.032,369.200 353.491,369.200 353.104 C 369.200 352.717,369.380 352.400,369.600 352.400 C 369.820 352.400,370.000 352.021,370.000 351.557 C 370.000 351.016,370.192 350.788,370.538 350.921 C 370.929 351.071,371.022 350.847,370.878 350.098 C 370.721 349.274,370.810 349.118,371.328 349.317 C 371.684 349.453,372.098 349.365,372.249 349.121 C 372.415 348.852,372.341 348.789,372.062 348.962 C 371.770 349.142,371.600 348.944,371.600 348.424 C 371.600 347.867,371.859 347.600,372.400 347.600 C 372.840 347.600,373.200 347.409,373.200 347.176 C 373.200 346.943,373.020 346.864,372.800 347.000 C 372.572 347.141,372.400 346.790,372.400 346.181 C 372.400 345.492,372.577 345.182,372.900 345.306 C 373.265 345.447,373.362 345.027,373.260 343.749 C 373.131 342.147,373.696 341.287,374.093 342.480 C 374.218 342.854,374.319 342.854,374.550 342.480 C 374.714 342.216,374.657 342.000,374.424 342.000 C 373.882 342.000,373.860 338.113,374.401 337.933 C 374.668 337.844,374.768 307.866,374.700 248.400 L 374.598 159.000 374.499 248.300 M25.200 249.624 C 25.200 307.671,25.066 336.765,24.800 336.600 C 24.580 336.464,24.400 336.729,24.400 337.189 C 24.400 337.649,24.643 338.118,24.939 338.232 C 25.327 338.381,25.427 338.983,25.294 340.368 C 25.181 341.537,25.282 342.403,25.550 342.569 C 25.828 342.741,25.902 342.611,25.751 342.216 C 25.573 341.752,25.687 341.658,26.191 341.852 C 26.717 342.054,26.841 342.499,26.736 343.806 C 26.637 345.036,26.736 345.446,27.100 345.306 C 27.423 345.182,27.600 345.492,27.600 346.181 C 27.600 346.790,27.428 347.141,27.200 347.000 C 26.980 346.864,26.800 346.943,26.800 347.176 C 26.800 347.409,27.160 347.600,27.600 347.600 C 28.141 347.600,28.400 347.867,28.400 348.424 C 28.400 348.944,28.230 349.142,27.938 348.962 C 27.659 348.789,27.585 348.852,27.751 349.121 C 27.902 349.365,28.316 349.453,28.672 349.317 C 29.190 349.118,29.279 349.274,29.122 350.098 C 28.978 350.847,29.071 351.071,29.462 350.921 C 29.808 350.788,30.000 351.016,30.000 351.557 C 30.000 352.021,30.180 352.400,30.400 352.400 C 30.620 352.400,30.800 352.717,30.800 353.104 C 30.800 353.491,31.160 354.032,31.600 354.307 C 32.040 354.582,32.400 355.165,32.400 355.603 C 32.400 356.042,32.599 356.400,32.843 356.400 C 33.086 356.400,33.186 356.661,33.063 356.980 C 32.926 357.338,33.033 357.485,33.344 357.366 C 33.621 357.260,35.602 358.979,37.747 361.187 C 39.893 363.394,41.906 365.200,42.221 365.200 C 42.536 365.200,43.018 365.560,43.293 366.000 C 43.568 366.440,44.109 366.800,44.496 366.800 C 44.883 366.800,45.200 366.980,45.200 367.200 C 45.200 367.420,45.560 367.600,46.000 367.600 C 46.440 367.600,46.800 367.780,46.800 368.000 C 46.800 368.220,47.160 368.400,47.600 368.400 C 48.040 368.400,48.400 368.580,48.400 368.800 C 48.400 369.020,48.760 369.200,49.200 369.200 C 49.754 369.200,50.010 369.477,50.032 370.100 C 50.049 370.595,50.154 370.775,50.265 370.500 C 50.376 370.225,50.921 370.000,51.476 370.000 C 52.199 370.000,52.422 370.167,52.260 370.587 C 52.136 370.910,52.235 371.298,52.479 371.449 C 52.748 371.615,52.811 371.541,52.638 371.262 C 52.440 370.942,52.851 370.800,53.976 370.800 C 55.499 370.800,56.188 371.337,55.120 371.693 C 54.825 371.792,54.910 371.957,55.341 372.122 C 55.760 372.283,55.943 372.232,55.797 371.995 C 55.272 371.146,58.458 371.583,59.166 372.457 C 59.551 372.933,60.113 373.211,60.430 373.084 C 60.841 372.918,60.749 372.778,60.100 372.580 C 59.605 372.430,59.200 372.058,59.200 371.753 C 59.200 371.374,58.696 371.200,57.600 371.200 C 56.720 371.200,56.000 371.020,56.000 370.800 C 56.000 370.580,55.280 370.400,54.400 370.400 C 53.520 370.400,52.800 370.220,52.800 370.000 C 52.800 369.780,52.260 369.600,51.600 369.600 C 50.940 369.600,50.400 369.420,50.400 369.200 C 50.400 368.980,50.040 368.800,49.600 368.800 C 49.160 368.800,48.800 368.620,48.800 368.400 C 48.800 368.180,48.440 368.000,48.000 368.000 C 47.560 368.000,47.200 367.820,47.200 367.600 C 47.200 367.380,46.840 367.200,46.400 367.200 C 45.960 367.200,45.600 367.020,45.600 366.800 C 45.600 366.580,45.283 366.400,44.896 366.400 C 44.509 366.400,43.968 366.040,43.693 365.600 C 43.418 365.160,42.953 364.800,42.660 364.800 C 41.965 364.800,32.800 355.635,32.800 354.940 C 32.800 354.647,32.440 354.182,32.000 353.907 C 31.560 353.632,31.200 353.091,31.200 352.704 C 31.200 352.317,31.020 352.000,30.800 352.000 C 30.580 352.000,30.400 351.640,30.400 351.200 C 30.400 350.760,30.220 350.400,30.000 350.400 C 29.780 350.400,29.600 350.040,29.600 349.600 C 29.600 349.160,29.420 348.800,29.200 348.800 C 28.980 348.800,28.800 348.440,28.800 348.000 C 28.800 347.560,28.620 347.200,28.400 347.200 C 28.180 347.200,28.000 346.660,28.000 346.000 C 28.000 345.340,27.820 344.800,27.600 344.800 C 27.380 344.800,27.200 344.080,27.200 343.200 C 27.200 342.320,27.043 341.600,26.851 341.600 C 26.659 341.600,26.383 340.852,26.237 339.938 C 26.090 339.024,25.885 338.137,25.780 337.968 C 25.675 337.798,25.593 298.226,25.597 250.030 C 25.602 201.833,25.514 162.400,25.403 162.400 C 25.291 162.400,25.200 201.651,25.200 249.624 M120.070 210.300 C 119.530 210.490,123.188 213.200,123.984 213.200 C 124.213 213.200,124.400 213.351,124.400 213.536 C 124.400 213.937,126.421 214.912,126.692 214.642 C 127.059 214.274,126.326 213.580,124.973 213.014 C 124.218 212.699,123.600 212.252,123.600 212.020 C 123.600 211.789,123.403 211.600,123.162 211.600 C 122.921 211.600,122.246 211.266,121.662 210.857 C 121.078 210.448,120.361 210.198,120.070 210.300 M130.300 372.300 C 168.635 372.356,231.365 372.356,269.700 372.300 C 308.035 372.244,276.670 372.198,200.000 372.198 C 123.330 372.198,91.965 372.244,130.300 372.300 " stroke="none" fill="#4c4c4c" fill-rule="evenodd"></path><path id="path2" d="M59.200 22.400 C 58.800 22.658,58.767 22.790,59.100 22.794 C 60.290 22.808,59.462 23.566,58.100 23.709 L 56.600 23.866 58.296 23.933 C 59.875 23.995,59.985 23.932,59.908 23.000 C 59.863 22.450,59.820 22.003,59.813 22.006 C 59.806 22.009,59.530 22.187,59.200 22.400 M340.088 23.045 C 340.015 23.923,340.145 23.995,341.704 23.933 L 343.400 23.866 341.900 23.709 C 340.443 23.556,339.908 23.031,340.880 22.707 C 341.204 22.599,341.167 22.473,340.763 22.318 C 340.348 22.158,340.143 22.378,340.088 23.045 M131.100 23.100 C 168.995 23.156,231.005 23.156,268.900 23.100 C 306.795 23.044,275.790 22.998,200.000 22.998 C 124.210 22.998,93.205 23.044,131.100 23.100 M54.800 23.771 C 54.800 24.085,54.485 24.424,54.100 24.524 C 53.454 24.693,53.453 24.711,54.086 24.754 C 54.463 24.779,54.965 24.440,55.200 24.000 C 55.490 23.458,55.495 23.200,55.214 23.200 C 54.986 23.200,54.800 23.457,54.800 23.771 M344.800 24.000 C 345.035 24.440,345.537 24.779,345.914 24.754 C 346.547 24.711,346.546 24.693,345.900 24.524 C 345.515 24.424,345.200 24.085,345.200 23.771 C 345.200 23.457,345.014 23.200,344.786 23.200 C 344.505 23.200,344.510 23.458,344.800 24.000 M52.234 24.544 C 52.370 24.900,52.172 25.204,51.729 25.319 C 51.144 25.470,51.178 25.516,51.900 25.554 C 52.816 25.601,53.163 24.671,52.405 24.203 C 52.183 24.066,52.108 24.216,52.234 24.544 M347.467 24.267 C 346.880 24.853,347.246 25.598,348.100 25.554 C 348.822 25.516,348.856 25.470,348.271 25.319 C 347.842 25.208,347.631 24.897,347.758 24.565 C 347.993 23.953,347.888 23.845,347.467 24.267 M50.000 25.647 C 50.000 25.903,49.589 26.015,49.037 25.909 C 48.346 25.777,48.132 25.877,48.279 26.262 C 48.412 26.608,48.184 26.800,47.643 26.800 C 47.179 26.800,46.800 26.980,46.800 27.200 C 46.800 27.420,46.517 27.600,46.171 27.600 C 45.826 27.600,45.244 27.899,44.879 28.264 C 44.513 28.630,44.391 28.855,44.607 28.764 C 48.224 27.252,51.443 25.200,50.200 25.200 C 50.090 25.200,50.000 25.401,50.000 25.647 M349.606 25.480 C 349.603 25.743,350.815 26.553,352.300 27.280 C 355.871 29.026,355.890 29.033,355.121 28.264 C 354.756 27.899,354.174 27.600,353.829 27.600 C 353.483 27.600,353.200 27.420,353.200 27.200 C 353.200 26.980,352.821 26.800,352.357 26.800 C 351.803 26.800,351.587 26.610,351.727 26.245 C 351.879 25.849,351.708 25.751,351.129 25.903 C 350.667 26.023,350.166 25.875,349.965 25.557 C 349.733 25.190,349.610 25.164,349.606 25.480 M42.886 29.454 C 42.383 29.974,42.130 30.400,42.324 30.400 C 42.748 30.400,44.197 28.855,43.964 28.651 C 43.874 28.572,43.389 28.933,42.886 29.454 M356.000 28.724 C 356.000 29.148,357.545 30.597,357.749 30.364 C 357.828 30.274,357.467 29.789,356.946 29.286 C 356.426 28.783,356.000 28.530,356.000 28.724 M41.200 30.376 C 41.200 30.672,40.940 30.786,40.579 30.647 C 40.209 30.505,40.061 30.576,40.214 30.822 C 40.569 31.398,33.965 38.072,33.294 37.815 C 32.976 37.692,32.869 37.788,33.030 38.049 C 33.180 38.291,33.054 38.647,32.751 38.839 C 32.448 39.031,32.380 39.189,32.600 39.191 C 33.440 39.199,41.900 30.567,41.473 30.139 C 41.323 29.989,41.200 30.096,41.200 30.376 M358.406 30.249 C 358.398 30.835,366.765 39.202,367.351 39.194 C 367.607 39.190,367.563 39.038,367.249 38.839 C 366.946 38.647,366.820 38.291,366.970 38.049 C 367.131 37.788,367.024 37.692,366.706 37.815 C 365.972 38.096,359.436 31.389,359.827 30.756 C 360.024 30.437,359.954 30.382,359.617 30.589 C 359.322 30.772,358.965 30.672,358.761 30.351 C 358.562 30.037,358.410 29.993,358.406 30.249 M32.400 39.976 C 32.400 40.272,32.140 40.386,31.779 40.247 C 31.389 40.098,31.259 40.173,31.430 40.449 C 31.580 40.691,31.454 41.047,31.151 41.239 C 30.848 41.431,30.797 41.591,31.038 41.594 C 31.641 41.602,32.990 40.057,32.664 39.731 C 32.519 39.586,32.400 39.696,32.400 39.976 M367.206 39.838 C 367.198 40.441,368.743 41.790,369.069 41.464 C 369.214 41.319,369.104 41.200,368.824 41.200 C 368.528 41.200,368.414 40.940,368.553 40.579 C 368.702 40.189,368.627 40.059,368.351 40.230 C 368.109 40.380,367.753 40.254,367.561 39.951 C 367.369 39.648,367.209 39.597,367.206 39.838 M29.918 43.486 C 30.016 43.997,29.896 44.400,29.647 44.400 C 29.401 44.400,29.200 44.779,29.200 45.243 C 29.200 45.797,29.010 46.013,28.645 45.873 C 28.249 45.721,28.151 45.892,28.303 46.471 C 28.423 46.933,28.275 47.434,27.957 47.635 C 27.622 47.847,27.584 47.990,27.861 47.994 C 28.114 47.997,28.931 46.779,29.675 45.286 C 30.772 43.088,30.907 42.571,30.387 42.571 C 29.933 42.571,29.795 42.840,29.918 43.486 M370.325 45.286 C 371.069 46.779,371.886 47.997,372.139 47.994 C 372.416 47.990,372.378 47.847,372.043 47.635 C 371.725 47.434,371.577 46.933,371.697 46.471 C 371.849 45.892,371.751 45.721,371.355 45.873 C 370.990 46.013,370.800 45.797,370.800 45.243 C 370.800 44.779,370.599 44.400,370.353 44.400 C 370.104 44.400,369.984 43.997,370.082 43.486 C 370.205 42.840,370.067 42.571,369.613 42.571 C 369.093 42.571,369.228 43.088,370.325 45.286 M27.632 49.343 C 27.609 49.880,27.407 50.012,26.900 49.819 C 26.339 49.605,26.299 49.652,26.700 50.056 C 27.310 50.671,28.208 49.967,27.877 49.135 C 27.739 48.790,27.652 48.864,27.632 49.343 M372.046 49.276 C 371.985 50.170,372.749 50.612,373.335 50.021 C 373.689 49.664,373.642 49.613,373.135 49.806 C 372.691 49.975,372.407 49.816,372.281 49.329 C 372.120 48.704,372.086 48.696,372.046 49.276 M26.800 52.227 C 26.800 53.095,26.667 53.212,25.942 52.982 C 25.195 52.745,25.156 52.787,25.640 53.304 C 26.440 54.162,27.200 53.701,27.200 52.357 C 27.200 51.721,27.110 51.200,27.000 51.200 C 26.890 51.200,26.800 51.662,26.800 52.227 M372.860 52.257 C 372.792 53.679,373.529 54.194,374.360 53.304 C 374.843 52.787,374.807 52.744,374.087 52.973 C 373.402 53.190,373.227 53.040,373.088 52.118 C 372.923 51.021,372.919 51.023,372.860 52.257 M26.000 55.767 C 26.000 56.518,25.775 57.224,25.500 57.335 C 25.201 57.456,25.282 57.550,25.700 57.568 C 26.255 57.593,26.400 57.269,26.400 56.000 C 26.400 55.120,26.310 54.400,26.200 54.400 C 26.090 54.400,26.000 55.015,26.000 55.767 M373.664 55.900 C 373.612 57.279,373.732 57.599,374.300 57.594 C 374.759 57.590,374.839 57.485,374.533 57.290 C 374.275 57.127,373.989 56.365,373.897 55.597 C 373.736 54.266,373.725 54.280,373.664 55.900 M25.394 110.600 C 25.394 138.320,25.442 149.601,25.500 135.669 C 25.558 121.737,25.558 99.057,25.500 85.269 C 25.442 71.481,25.394 82.880,25.394 110.600 M374.594 109.800 C 374.594 137.080,374.642 148.181,374.700 134.469 C 374.758 120.757,374.758 98.437,374.700 84.869 C 374.642 71.301,374.594 82.520,374.594 109.800 M375.101 188.200 C 374.936 194.360,374.801 230.585,374.801 268.700 C 374.800 314.633,374.665 338.000,374.400 338.000 C 374.180 338.000,374.000 338.900,374.000 340.000 C 374.000 341.100,373.820 342.000,373.600 342.000 C 373.380 342.000,373.200 342.720,373.200 343.600 C 373.200 344.480,373.020 345.200,372.800 345.200 C 372.580 345.200,372.400 345.661,372.400 346.224 C 372.400 346.804,372.573 347.140,372.800 347.000 C 373.020 346.864,373.200 346.403,373.200 345.976 C 373.200 345.549,373.380 345.200,373.600 345.200 C 373.820 345.200,374.000 344.480,374.000 343.600 C 374.000 342.720,374.180 342.000,374.400 342.000 C 374.620 342.000,374.800 341.205,374.800 340.233 C 374.800 339.262,374.980 338.407,375.201 338.333 C 375.468 338.244,375.568 311.198,375.501 257.600 C 375.441 209.552,375.279 181.523,375.101 188.200 M24.474 257.076 C 24.425 309.576,24.535 336.436,24.800 336.600 C 25.256 336.882,25.274 202.842,24.821 187.200 C 24.671 182.030,24.515 213.474,24.474 257.076 M25.902 343.329 C 26.022 344.248,26.273 345.060,26.460 345.133 C 26.647 345.207,26.800 345.601,26.800 346.010 C 26.800 346.418,26.980 346.864,27.200 347.000 C 27.427 347.140,27.600 346.804,27.600 346.224 C 27.600 345.661,27.420 345.200,27.200 345.200 C 26.980 345.200,26.800 344.499,26.800 343.643 C 26.800 342.680,26.587 342.004,26.242 341.871 C 25.800 341.702,25.729 342.004,25.902 343.329 M27.600 348.176 C 27.600 348.493,27.780 348.864,28.000 349.000 C 28.220 349.136,28.400 349.582,28.400 349.990 C 28.400 350.399,28.535 350.793,28.700 350.867 C 28.865 350.940,29.433 351.855,29.963 352.900 C 30.492 353.945,31.077 354.800,31.263 354.800 C 31.448 354.800,31.600 355.120,31.600 355.512 C 31.600 355.903,31.960 356.483,32.400 356.800 C 32.840 357.117,33.200 357.519,33.200 357.693 C 33.200 359.107,41.380 365.967,45.589 368.084 C 47.025 368.806,48.260 369.532,48.333 369.698 C 48.533 370.149,50.000 370.063,50.000 369.600 C 50.000 369.380,49.640 369.200,49.200 369.200 C 48.760 369.200,48.400 369.020,48.400 368.800 C 48.400 368.580,48.040 368.400,47.600 368.400 C 47.160 368.400,46.800 368.220,46.800 368.000 C 46.800 367.780,46.440 367.600,46.000 367.600 C 45.560 367.600,45.200 367.420,45.200 367.200 C 45.200 366.980,44.883 366.800,44.496 366.800 C 44.109 366.800,43.568 366.440,43.293 366.000 C 43.018 365.560,42.553 365.200,42.260 365.200 C 41.565 365.200,32.400 356.035,32.400 355.340 C 32.400 355.047,32.040 354.582,31.600 354.307 C 31.160 354.032,30.800 353.491,30.800 353.104 C 30.800 352.717,30.620 352.400,30.400 352.400 C 30.180 352.400,30.000 352.040,30.000 351.600 C 30.000 351.160,29.820 350.800,29.600 350.800 C 29.380 350.800,29.200 350.440,29.200 350.000 C 29.200 349.560,29.020 349.200,28.800 349.200 C 28.580 349.200,28.400 348.840,28.400 348.400 C 28.400 347.960,28.220 347.600,28.000 347.600 C 27.780 347.600,27.600 347.859,27.600 348.176 M371.600 348.400 C 371.600 348.840,371.420 349.200,371.200 349.200 C 370.980 349.200,370.800 349.560,370.800 350.000 C 370.800 350.440,370.620 350.800,370.400 350.800 C 370.180 350.800,370.000 351.160,370.000 351.600 C 370.000 352.040,369.820 352.400,369.600 352.400 C 369.380 352.400,369.200 352.717,369.200 353.104 C 369.200 353.491,368.840 354.032,368.400 354.307 C 367.960 354.582,367.600 355.047,367.600 355.340 C 367.600 356.035,358.435 365.200,357.740 365.200 C 357.447 365.200,356.982 365.560,356.707 366.000 C 356.432 366.440,355.891 366.800,355.504 366.800 C 355.117 366.800,354.800 366.980,354.800 367.200 C 354.800 367.420,354.440 367.600,354.000 367.600 C 353.560 367.600,353.200 367.780,353.200 368.000 C 353.200 368.220,352.840 368.400,352.400 368.400 C 351.960 368.400,351.600 368.580,351.600 368.800 C 351.600 369.020,351.240 369.200,350.800 369.200 C 350.360 369.200,350.000 369.380,350.000 369.600 C 350.000 370.063,351.467 370.149,351.667 369.698 C 351.740 369.532,352.975 368.806,354.411 368.084 C 358.764 365.895,366.800 359.100,366.800 357.609 C 366.800 357.388,367.160 356.982,367.600 356.707 C 368.040 356.432,368.400 355.891,368.400 355.504 C 368.400 355.117,368.552 354.800,368.737 354.800 C 368.923 354.800,369.508 353.945,370.037 352.900 C 370.567 351.855,371.135 350.940,371.300 350.867 C 371.465 350.793,371.600 350.399,371.600 349.990 C 371.600 349.582,371.780 349.136,372.000 349.000 C 372.220 348.864,372.400 348.493,372.400 348.176 C 372.400 347.859,372.220 347.600,372.000 347.600 C 371.780 347.600,371.600 347.960,371.600 348.400 M50.400 370.400 C 50.400 370.620,50.839 370.800,51.376 370.800 C 51.913 370.800,52.464 370.980,52.600 371.200 C 52.736 371.420,53.456 371.600,54.200 371.600 C 54.944 371.600,55.664 371.780,55.800 372.000 C 55.936 372.220,56.667 372.400,57.424 372.400 C 58.181 372.400,58.800 372.220,58.800 372.000 C 58.800 371.780,58.080 371.600,57.200 371.600 C 56.320 371.600,55.600 371.420,55.600 371.200 C 55.600 370.980,54.880 370.800,54.000 370.800 C 53.120 370.800,52.400 370.620,52.400 370.400 C 52.400 370.180,51.950 370.000,51.400 370.000 C 50.850 370.000,50.400 370.180,50.400 370.400 M347.600 370.400 C 347.600 370.620,346.880 370.800,346.000 370.800 C 345.120 370.800,344.400 370.980,344.400 371.200 C 344.400 371.420,343.680 371.600,342.800 371.600 C 341.920 371.600,341.200 371.780,341.200 372.000 C 341.200 372.220,341.819 372.400,342.576 372.400 C 343.333 372.400,344.064 372.220,344.200 372.000 C 344.336 371.780,345.056 371.600,345.800 371.600 C 346.544 371.600,347.264 371.420,347.400 371.200 C 347.536 370.980,348.087 370.800,348.624 370.800 C 349.161 370.800,349.600 370.620,349.600 370.400 C 349.600 370.180,349.150 370.000,348.600 370.000 C 348.050 370.000,347.600 370.180,347.600 370.400 M60.600 372.800 C 60.943 373.355,339.057 373.355,339.400 372.800 C 339.565 372.534,292.996 372.400,200.000 372.400 C 107.004 372.400,60.435 372.534,60.600 372.800 " stroke="none" fill="#797979" fill-rule="evenodd"></path><path id="path3" d="M59.800 22.400 C 59.664 22.620,58.663 22.800,57.576 22.800 C 56.489 22.800,55.600 22.980,55.600 23.200 C 55.600 23.420,56.500 23.600,57.600 23.600 C 58.700 23.600,59.600 23.420,59.600 23.200 C 59.600 22.934,106.667 22.800,200.000 22.800 C 293.333 22.800,340.400 22.934,340.400 23.200 C 340.400 23.420,341.300 23.600,342.400 23.600 C 343.500 23.600,344.400 23.420,344.400 23.200 C 344.400 22.980,343.511 22.800,342.424 22.800 C 341.337 22.800,340.336 22.620,340.200 22.400 C 340.036 22.135,292.870 22.000,200.000 22.000 C 107.130 22.000,59.964 22.135,59.800 22.400 M52.400 24.000 C 52.400 24.220,51.961 24.400,51.424 24.400 C 50.887 24.400,50.336 24.580,50.200 24.800 C 50.064 25.020,49.603 25.200,49.176 25.200 C 48.749 25.200,48.400 25.380,48.400 25.600 C 48.400 25.820,48.128 26.000,47.795 26.000 C 47.239 26.000,45.678 26.722,45.200 27.200 C 45.090 27.310,44.550 27.653,44.000 27.962 C 43.450 28.272,42.656 28.722,42.235 28.962 C 39.500 30.527,31.600 38.582,31.600 39.807 C 31.600 40.133,31.450 40.400,31.268 40.400 C 31.085 40.400,30.680 40.895,30.368 41.500 C 30.056 42.105,29.711 42.690,29.601 42.800 C 29.123 43.276,28.400 44.839,28.400 45.395 C 28.400 45.728,28.220 46.000,28.000 46.000 C 27.780 46.000,27.600 46.349,27.600 46.776 C 27.600 47.203,27.420 47.664,27.200 47.800 C 26.980 47.936,26.800 48.472,26.800 48.990 C 26.800 49.509,26.637 49.993,26.437 50.067 C 25.852 50.282,25.733 52.910,26.300 53.100 C 26.646 53.215,26.800 52.762,26.800 51.633 C 26.800 50.735,26.980 50.000,27.200 50.000 C 27.420 50.000,27.600 49.460,27.600 48.800 C 27.600 48.140,27.780 47.600,28.000 47.600 C 28.220 47.600,28.400 47.240,28.400 46.800 C 28.400 46.360,28.580 46.000,28.800 46.000 C 29.020 46.000,29.200 45.640,29.200 45.200 C 29.200 44.760,29.380 44.400,29.600 44.400 C 29.820 44.400,30.000 44.040,30.000 43.600 C 30.000 43.160,30.180 42.800,30.400 42.800 C 30.620 42.800,30.800 42.480,30.800 42.088 C 30.800 41.697,31.160 41.117,31.600 40.800 C 32.040 40.483,32.400 40.025,32.400 39.782 C 32.400 39.185,41.557 30.000,42.152 30.000 C 42.411 30.000,42.883 29.640,43.200 29.200 C 43.517 28.760,44.097 28.400,44.488 28.400 C 44.880 28.400,45.200 28.220,45.200 28.000 C 45.200 27.780,45.560 27.600,46.000 27.600 C 46.440 27.600,46.800 27.420,46.800 27.200 C 46.800 26.980,47.160 26.800,47.600 26.800 C 48.040 26.800,48.400 26.620,48.400 26.400 C 48.400 26.180,48.760 26.000,49.200 26.000 C 49.640 26.000,50.000 25.820,50.000 25.600 C 50.000 25.380,50.540 25.200,51.200 25.200 C 51.860 25.200,52.400 25.020,52.400 24.800 C 52.400 24.580,52.940 24.400,53.600 24.400 C 54.260 24.400,54.800 24.220,54.800 24.000 C 54.800 23.780,54.260 23.600,53.600 23.600 C 52.940 23.600,52.400 23.780,52.400 24.000 M345.200 24.000 C 345.200 24.220,345.740 24.400,346.400 24.400 C 347.060 24.400,347.600 24.580,347.600 24.800 C 347.600 25.020,348.140 25.200,348.800 25.200 C 349.460 25.200,350.000 25.380,350.000 25.600 C 350.000 25.820,350.360 26.000,350.800 26.000 C 351.240 26.000,351.600 26.180,351.600 26.400 C 351.600 26.620,351.960 26.800,352.400 26.800 C 352.840 26.800,353.200 26.980,353.200 27.200 C 353.200 27.420,353.560 27.600,354.000 27.600 C 354.440 27.600,354.800 27.780,354.800 28.000 C 354.800 28.220,355.120 28.400,355.512 28.400 C 355.903 28.400,356.483 28.760,356.800 29.200 C 357.117 29.640,357.589 30.000,357.848 30.000 C 358.443 30.000,367.600 39.185,367.600 39.782 C 367.600 40.025,367.960 40.483,368.400 40.800 C 368.840 41.117,369.200 41.697,369.200 42.088 C 369.200 42.480,369.380 42.800,369.600 42.800 C 369.820 42.800,370.000 43.160,370.000 43.600 C 370.000 44.040,370.180 44.400,370.400 44.400 C 370.620 44.400,370.800 44.760,370.800 45.200 C 370.800 45.640,370.980 46.000,371.200 46.000 C 371.420 46.000,371.600 46.360,371.600 46.800 C 371.600 47.240,371.780 47.600,372.000 47.600 C 372.220 47.600,372.400 48.140,372.400 48.800 C 372.400 49.460,372.580 50.000,372.800 50.000 C 373.020 50.000,373.200 50.735,373.200 51.633 C 373.200 52.762,373.354 53.215,373.700 53.100 C 374.267 52.910,374.148 50.282,373.563 50.067 C 373.363 49.993,373.200 49.509,373.200 48.990 C 373.200 48.472,373.020 47.936,372.800 47.800 C 372.580 47.664,372.400 47.203,372.400 46.776 C 372.400 46.349,372.220 46.000,372.000 46.000 C 371.780 46.000,371.600 45.728,371.600 45.395 C 371.600 44.839,370.877 43.276,370.399 42.800 C 370.289 42.690,369.944 42.105,369.632 41.500 C 369.320 40.895,368.915 40.400,368.732 40.400 C 368.550 40.400,368.400 40.133,368.400 39.807 C 368.400 39.101,367.125 37.573,363.576 34.024 C 359.876 30.323,358.843 29.502,355.800 27.838 C 355.360 27.597,354.910 27.310,354.800 27.200 C 354.322 26.722,352.761 26.000,352.205 26.000 C 351.872 26.000,351.600 25.820,351.600 25.600 C 351.600 25.380,351.251 25.200,350.824 25.200 C 350.397 25.200,349.936 25.020,349.800 24.800 C 349.664 24.580,349.113 24.400,348.576 24.400 C 348.039 24.400,347.600 24.220,347.600 24.000 C 347.600 23.780,347.060 23.600,346.400 23.600 C 345.740 23.600,345.200 23.780,345.200 24.000 M25.200 54.776 C 25.200 55.643,25.022 56.463,24.805 56.597 C 24.349 56.879,24.322 169.555,24.774 185.000 C 24.929 190.280,25.088 163.685,25.128 125.900 C 25.176 80.415,25.335 57.200,25.600 57.200 C 25.820 57.200,26.000 56.300,26.000 55.200 C 26.000 54.100,25.820 53.200,25.600 53.200 C 25.380 53.200,25.200 53.909,25.200 54.776 M374.000 55.200 C 374.000 56.300,374.180 57.200,374.400 57.200 C 374.665 57.200,374.824 80.015,374.872 124.700 C 374.912 161.825,375.070 188.330,375.224 183.600 C 375.675 169.690,375.650 56.878,375.195 56.597 C 374.978 56.463,374.800 55.643,374.800 54.776 C 374.800 53.909,374.620 53.200,374.400 53.200 C 374.180 53.200,374.000 54.100,374.000 55.200 " stroke="none" fill="#bfbfbf" fill-rule="evenodd"></path><path id="path4" d="" stroke="none" fill="#ffffff" fill-rule="evenodd"></path></g></svg>